<?xml version="1.0" encoding="UTF-8"?>
<svg version="1.1" viewBox="0 0 24 24" xmlns="http://www.w3.org/2000/svg" xmlns:xlink="http://www.w3.org/1999/xlink">
    <!--Generated by IJSVG (https://github.com/iconjar/IJSVG)-->
    <path d="M11.9991,2c-5.52136,0 -9.99909,4.47712 -9.99909,10.0006c4.44089e-16,4.4178 2.86503,8.1659 6.83876,9.4884c0.50032,0.0917 0.68265,-0.217 0.68265,-0.482c0,-0.2374 -0.0086,-0.8663 -0.01351,-1.7008c-2.78155,0.6043 -3.36843,-1.3405 -3.36843,-1.3405c-0.45489,-1.1552 -1.11053,-1.4628 -1.11053,-1.4628c-0.90795,-0.6205 0.06876,-0.6079 0.06876,-0.6079c1.00372,0.0707 1.53165,1.0306 1.53165,1.0306c0.89199,1.5281 2.34078,1.0869 2.91048,0.8309c0.09085,-0.6463 0.3493,-1.0869 0.63476,-1.3369c-2.22045,-0.2524 -4.55508,-1.1103 -4.55508,-4.9423c0,-1.0917 0.38982,-1.98438 1.0295,-2.68342c-0.10314,-0.25299 -0.44631,-1.26971 0.09821,-2.64649c0,0 0.8392,-0.26888 2.74963,1.02513c0.79744,-0.22179 1.65324,-0.33272 2.50344,-0.33658c0.8496,0.00386 1.7048,0.11479 2.5035,0.33658c1.9092,-1.29401 2.7471,-1.02513 2.7471,-1.02513c0.5458,1.37678 0.2026,2.3935 0.1001,2.64649c0.6409,0.69904 1.0277,1.59172 1.0277,2.68342c0,3.8416 -2.3384,4.6869 -4.5656,4.9345c0.3586,0.3087 0.6784,0.919 0.6784,1.8519c0,1.3368 -0.0123,2.4154 -0.0123,2.7433c0,0.2674 0.1805,0.5785 0.6876,0.4808c3.9706,-1.3249 6.8332,-5.0706 6.8332,-9.4872c0,-5.52348 -4.4777,-10.0006 -10.0009,-10.0006Z" fill="#fff" fill-rule="evenodd"></path>
</svg>