<svg width="134" height="134" viewBox="0 0 134 134" fill="none" xmlns="http://www.w3.org/2000/svg">
<g clip-path="url(#clip0_315_2)">
<path d="M36.2409 126.357C66.773 144.036 107.809 129.469 125.437 98.8483C143.065 68.2278 132.603 29.0736 102.071 11.3947C71.5392 -6.28406 24.943 -4.79558 7.31538 25.8249C-10.3124 56.4455 5.70873 108.678 36.2409 126.357Z" fill="url(#paint0_linear_315_2)"/>
<path d="M53.9776 21.8048C50.0864 21.8048 46.5792 22.7264 43.456 24.5696C37.6704 28.0512 34.2656 33.5296 33.2416 41.0048C33.088 42.1824 33.0112 43.616 33.0112 45.3056C33.0112 46.9952 33.3184 48.8896 33.9328 50.9888C34.8032 54.112 36.5184 56.928 39.0784 59.4368C41.5872 61.9456 44.736 63.6608 48.5248 64.5824C50.112 58.7456 52.5184 53.2928 55.744 48.224C58.9696 43.104 63.04 38.8544 67.9552 35.4752C72.8704 32.0448 78.0416 30.3296 83.4688 30.3296C88.1792 30.3296 91.0464 32.224 92.0704 36.0128C92.3776 36.9856 92.5312 38.0096 92.5312 39.0848C92.5312 42.208 91.3536 45.664 88.9984 49.4528C85.312 55.5456 79.936 60.1792 72.8704 63.3536C67.3408 65.8624 61.376 67.1168 54.976 67.1168H53.44C52.3648 70.9056 51.8272 74.5664 51.8272 78.0992C51.8272 84.7552 53.5168 89.3632 56.896 91.9232C57.3568 87.7248 58.432 83.7824 60.1216 80.096C61.8112 76.4096 64.1408 73.312 67.1104 70.8032C70.1312 68.2944 73.4592 67.04 77.0944 67.04C81.2928 67.04 83.904 68.9088 84.928 72.6464C85.184 73.6704 85.312 74.72 85.312 75.7952C85.312 78.6112 84.416 81.632 82.624 84.8576C79.808 89.824 75.8912 93.2032 70.8736 94.9952C67.2384 96.224 63.6288 96.4288 60.0448 95.6096C59.9936 96.2752 59.968 96.9408 59.968 97.6064C59.968 101.344 60.7616 104.493 62.3488 107.053C64.1408 110.074 67.0592 111.584 71.104 111.584C70.9504 112.557 70.1056 113.043 68.5696 113.043C64.4736 113.043 61.4528 111.354 59.5072 107.974C57.6128 104.595 56.6656 100.602 56.6656 95.9936C56.6656 95.4816 56.6656 94.9952 56.6656 94.5344C52.2624 92.64 49.344 89.0048 47.9104 83.6288C47.1936 81.0688 46.8352 78.3552 46.8352 75.488C46.8352 72.6208 47.2448 69.5744 48.064 66.3488C44.48 65.5296 41.3824 64.0448 38.7712 61.8944C36.16 59.744 34.2912 57.2864 33.1648 54.5216C31.68 50.8864 30.9376 47.5328 30.9376 44.4608C30.9376 41.3888 31.424 38.496 32.3968 35.7824C33.3696 33.0688 34.7776 30.5088 36.6208 28.1024C38.4128 25.6448 40.8448 23.6736 43.9168 22.1888C46.9888 20.6528 50.368 19.8848 54.0544 19.8848C61.3248 19.8848 66.2912 22.7008 68.9536 28.3328C69.2608 28.9472 68.9024 29.3568 67.8784 29.5616C66.6496 29.664 65.8816 29.3824 65.5744 28.7168C64.0384 24.1088 60.1728 21.8048 53.9776 21.8048ZM82.4704 32.3264C79.552 32.3264 76.5824 33.2992 73.5616 35.2448C70.592 37.1392 67.8784 39.648 65.4208 42.7712C60.1984 49.4272 56.384 56.928 53.9776 65.2736H55.0528C65.088 65.2736 73.536 62.0736 80.3968 55.6736C84.9536 51.424 87.744 46.8416 88.768 41.9264C88.9728 40.8512 89.0752 39.8784 89.0752 39.008C89.0752 36.3456 88.1024 34.4256 86.1568 33.248C85.184 32.6336 83.9552 32.3264 82.4704 32.3264ZM77.7856 69.1136C73.6384 69.1136 69.8496 71.648 66.4192 76.7168C63.04 81.7856 60.9664 87.4176 60.1984 93.6128C61.5296 94.0224 62.9376 94.2272 64.4224 94.2272C70.0544 94.2272 74.7904 91.7696 78.6304 86.8544C81.6512 83.0656 83.1616 79.328 83.1616 75.6416C83.1616 71.9552 81.8304 69.8304 79.168 69.2672C78.7584 69.1648 78.2976 69.1136 77.7856 69.1136Z" fill="white"/>
<path d="M43.456 24.5696L42.9477 23.7084L42.9404 23.7128L43.456 24.5696ZM33.2416 41.0048L32.2508 40.8691L32.25 40.8755L33.2416 41.0048ZM33.9328 50.9888L34.8962 50.7203L34.8925 50.7079L33.9328 50.9888ZM39.0784 59.4368L39.7855 58.7297L39.7783 58.7226L39.0784 59.4368ZM48.5248 64.5824L48.2884 65.5541L49.2343 65.7841L49.4898 64.8448L48.5248 64.5824ZM55.744 48.224L56.5877 48.7609L56.5901 48.757L55.744 48.224ZM67.9552 35.4752L68.5217 36.2993L68.5275 36.2952L67.9552 35.4752ZM92.0704 36.0128L91.105 36.2737L91.1105 36.2939L91.1168 36.3139L92.0704 36.0128ZM88.9984 49.4528L88.1491 48.9248L88.1428 48.9351L88.9984 49.4528ZM72.8704 63.3536L72.4606 62.4414L72.4572 62.4429L72.8704 63.3536ZM53.44 67.1168V66.1168H52.6843L52.478 66.8438L53.44 67.1168ZM56.896 91.9232L56.2921 92.7203L57.6977 93.7851L57.89 92.0323L56.896 91.9232ZM60.1216 80.096L59.2125 79.6793L60.1216 80.096ZM67.1104 70.8032L66.4715 70.0339L66.465 70.0393L67.1104 70.8032ZM84.928 72.6464L85.8981 72.4039L85.8954 72.393L85.8925 72.3822L84.928 72.6464ZM82.624 84.8576L83.4939 85.3509L83.4982 85.3432L82.624 84.8576ZM70.8736 94.9952L71.1938 95.9425L71.2019 95.9398L71.2099 95.9369L70.8736 94.9952ZM60.0448 95.6096L60.2676 94.6347L59.1367 94.3762L59.0477 95.5329L60.0448 95.6096ZM62.3488 107.053L63.2089 106.543L63.2039 106.534L63.1987 106.526L62.3488 107.053ZM71.104 111.584L72.0918 111.74L72.2743 110.584H71.104V111.584ZM59.5072 107.974L58.6349 108.463L58.6406 108.473L59.5072 107.974ZM56.6656 94.5344H57.6656V93.876L57.0608 93.6158L56.6656 94.5344ZM47.9104 83.6288L48.8767 83.3711L48.8734 83.3592L47.9104 83.6288ZM48.064 66.3488L49.0332 66.595L49.2854 65.6022L48.2868 65.3739L48.064 66.3488ZM38.7712 61.8944L39.4069 61.1225L38.7712 61.8944ZM33.1648 54.5216L34.0909 54.1443L34.0906 54.1435L33.1648 54.5216ZM32.3968 35.7824L33.3381 36.1199L32.3968 35.7824ZM36.6208 28.1024L37.4147 28.7105L37.4219 28.7011L37.4288 28.6916L36.6208 28.1024ZM43.9168 22.1888L44.352 23.0892L44.364 23.0832L43.9168 22.1888ZM68.9536 28.3328L68.0495 28.7602L68.0542 28.7702L68.0592 28.78L68.9536 28.3328ZM67.8784 29.5616L67.9614 30.5581L68.0184 30.5534L68.0745 30.5422L67.8784 29.5616ZM65.5744 28.7168L64.6257 29.033L64.6432 29.0856L64.6664 29.1359L65.5744 28.7168ZM73.5616 35.2448L74.0994 36.0879L74.1031 36.0855L73.5616 35.2448ZM65.4208 42.7712L64.6349 42.1528L64.6341 42.1539L65.4208 42.7712ZM53.9776 65.2736L53.0167 64.9965L52.6485 66.2736H53.9776V65.2736ZM80.3968 55.6736L79.7148 54.9423L79.7147 54.9424L80.3968 55.6736ZM88.768 41.9264L89.747 42.1304L89.7487 42.1219L89.7503 42.1135L88.768 41.9264ZM86.1568 33.248L85.6228 34.0935L85.6309 34.0986L85.639 34.1035L86.1568 33.248ZM66.4192 76.7168L65.591 76.1563L65.5871 76.1621L66.4192 76.7168ZM60.1984 93.6128L59.206 93.4898L59.1028 94.322L59.9043 94.5686L60.1984 93.6128ZM78.6304 86.8544L77.8485 86.231L77.8424 86.2388L78.6304 86.8544ZM79.168 69.2672L78.9255 70.2373L78.9432 70.2418L78.961 70.2455L79.168 69.2672ZM53.9776 20.8048C49.9211 20.8048 46.2362 21.7677 42.9477 23.7084L43.9643 25.4308C46.9222 23.6851 50.2517 22.8048 53.9776 22.8048V20.8048ZM42.9404 23.7128C36.8628 27.3701 33.3105 33.1339 32.2509 40.8691L34.2323 41.1405C35.2207 33.9253 38.478 28.7323 43.9716 25.4264L42.9404 23.7128ZM32.25 40.8755C32.089 42.1097 32.0112 43.5892 32.0112 45.3056H34.0112C34.0112 43.6428 34.087 42.2552 34.2332 41.1341L32.25 40.8755ZM32.0112 45.3056C32.0112 47.1135 32.3394 49.1046 32.9731 51.2697L34.8925 50.7079C34.2974 48.6746 34.0112 46.8769 34.0112 45.3056H32.0112ZM32.9695 51.2573C33.8919 54.567 35.7066 57.5326 38.3785 60.151L39.7783 58.7226C37.3302 56.3234 35.7145 53.657 34.8961 50.7203L32.9695 51.2573ZM38.3713 60.1439C41.0224 62.795 44.3397 64.5936 48.2884 65.5541L48.7612 63.6107C45.1323 62.7281 42.152 61.0962 39.7855 58.7297L38.3713 60.1439ZM49.4898 64.8448C51.0507 59.1044 53.4164 53.7442 56.5877 48.7609L54.9003 47.6871C51.6204 52.8414 49.1733 58.3868 47.5598 64.32L49.4898 64.8448ZM56.5901 48.757C59.7443 43.7503 63.7202 39.6003 68.5217 36.2992L67.3887 34.6512C62.3598 38.1085 58.1949 42.4577 54.8979 47.691L56.5901 48.757ZM68.5275 36.2952C73.2932 32.9692 78.2676 31.3296 83.4688 31.3296V29.3296C77.8156 29.3296 72.4476 31.1204 67.3829 34.6552L68.5275 36.2952ZM83.4688 31.3296C85.6984 31.3296 87.3809 31.7788 88.6007 32.5847C89.8022 33.3786 90.647 34.5789 91.105 36.2737L93.0358 35.7519C92.4698 33.6579 91.369 32.0166 89.7033 30.9161C88.0558 29.8276 85.9496 29.3296 83.4688 29.3296V31.3296ZM91.1168 36.3139C91.3916 37.1842 91.5312 38.1062 91.5312 39.0848H93.5312C93.5312 37.913 93.3636 36.787 93.024 35.7117L91.1168 36.3139ZM91.5312 39.0848C91.5312 41.9578 90.4459 45.2301 88.1491 48.9249L89.8477 49.9807C92.2613 46.0979 93.5312 42.4582 93.5312 39.0848H91.5312ZM88.1428 48.9351C84.5708 54.8389 79.358 59.3426 72.4606 62.4414L73.2802 64.2658C80.514 61.0158 86.0532 56.2523 89.854 49.9705L88.1428 48.9351ZM72.4572 62.4429C67.0644 64.8897 61.2413 66.1168 54.976 66.1168V68.1168C61.5107 68.1168 67.6172 66.8351 73.2836 64.2643L72.4572 62.4429ZM54.976 66.1168H53.44V68.1168H54.976V66.1168ZM52.478 66.8438C51.3804 70.7114 50.8272 74.4642 50.8272 78.0992H52.8272C52.8272 74.6686 53.3492 71.0998 54.402 67.3898L52.478 66.8438ZM50.8272 78.0992C50.8272 84.8871 52.5477 89.8836 56.2921 92.7203L57.4999 91.1261C54.4859 88.8428 52.8272 84.6233 52.8272 78.0992H50.8272ZM57.89 92.0323C58.3396 87.9358 59.3875 84.0977 61.0307 80.5127L59.2125 79.6793C57.4765 83.4671 56.374 87.5138 55.902 91.8141L57.89 92.0323ZM61.0307 80.5127C62.6617 76.9541 64.9034 73.9768 67.7558 71.5671L66.465 70.0393C63.3782 72.6472 60.9607 75.8651 59.2125 79.6793L61.0307 80.5127ZM67.7493 71.5725C70.6061 69.1999 73.7119 68.04 77.0944 68.04V66.04C73.2065 66.04 69.6563 67.3889 66.4715 70.0339L67.7493 71.5725ZM77.0944 68.04C79.0487 68.04 80.5292 68.4744 81.6196 69.2548C82.702 70.0294 83.4992 71.2158 83.9635 72.9106L85.8925 72.3822C85.3328 70.3394 84.3124 68.7226 82.7836 67.6284C81.2628 66.54 79.3385 66.04 77.0944 66.04V68.04ZM83.9579 72.8889C84.1937 73.8321 84.312 74.8002 84.312 75.7952H86.312C86.312 74.6398 86.1743 73.5087 85.8981 72.4039L83.9579 72.8889ZM84.312 75.7952C84.312 78.3966 83.4841 81.2502 81.7498 84.372L83.4982 85.3432C85.3479 82.0138 86.312 78.8258 86.312 75.7952H84.312ZM81.7541 84.3644C79.0472 89.1383 75.3121 92.3482 70.5373 94.0535L71.2099 95.9369C76.4703 94.0582 80.5687 90.5097 83.4939 85.3508L81.7541 84.3644ZM70.5534 94.0479C67.0851 95.2202 63.6635 95.4109 60.2676 94.6347L59.822 96.5845C63.5941 97.4467 67.3916 97.2278 71.1938 95.9425L70.5534 94.0479ZM59.0477 95.5329C58.9946 96.2239 58.968 96.9151 58.968 97.6064H60.968C60.968 96.9665 60.9926 96.3265 61.0419 95.6863L59.0477 95.5329ZM58.968 97.6064C58.968 101.485 59.7924 104.827 61.4989 107.58L63.1987 106.526C61.7308 104.158 60.968 101.203 60.968 97.6064H58.968ZM61.4887 107.563C63.4912 110.938 66.7698 112.584 71.104 112.584V110.584C67.3486 110.584 64.7904 109.209 63.2089 106.543L61.4887 107.563ZM70.1162 111.428C70.086 111.619 70.0135 111.721 69.8562 111.812C69.649 111.931 69.254 112.043 68.5696 112.043V114.043C69.4212 114.043 70.2166 113.912 70.8542 113.545C71.5417 113.149 71.9684 112.521 72.0918 111.74L70.1162 111.428ZM68.5696 112.043C64.8091 112.043 62.1301 110.526 60.3738 107.475L58.6406 108.473C60.7754 112.181 64.1381 114.043 68.5696 114.043V112.043ZM60.3795 107.485C58.5834 104.282 57.6656 100.463 57.6656 95.9936H55.6656C55.6656 100.74 56.6422 104.909 58.6349 108.463L60.3795 107.485ZM57.6656 95.9936C57.6656 95.9926 57.6656 95.9916 57.6656 95.9906C57.6656 95.9896 57.6656 95.9886 57.6656 95.9876C57.6656 95.9866 57.6656 95.9856 57.6656 95.9846C57.6656 95.9836 57.6656 95.9826 57.6656 95.9816C57.6656 95.9806 57.6656 95.9796 57.6656 95.9786C57.6656 95.9776 57.6656 95.9766 57.6656 95.9756C57.6656 95.9746 57.6656 95.9736 57.6656 95.9726C57.6656 95.9716 57.6656 95.9706 57.6656 95.9696C57.6656 95.9686 57.6656 95.9676 57.6656 95.9666C57.6656 95.9656 57.6656 95.9646 57.6656 95.9636C57.6656 95.9626 57.6656 95.9616 57.6656 95.9606C57.6656 95.9596 57.6656 95.9586 57.6656 95.9576C57.6656 95.9566 57.6656 95.9556 57.6656 95.9546C57.6656 95.9537 57.6656 95.9527 57.6656 95.9517C57.6656 95.9507 57.6656 95.9497 57.6656 95.9487C57.6656 95.9477 57.6656 95.9467 57.6656 95.9457C57.6656 95.9447 57.6656 95.9437 57.6656 95.9427C57.6656 95.9417 57.6656 95.9407 57.6656 95.9397C57.6656 95.9387 57.6656 95.9377 57.6656 95.9367C57.6656 95.9357 57.6656 95.9347 57.6656 95.9337C57.6656 95.9327 57.6656 95.9317 57.6656 95.9307C57.6656 95.9297 57.6656 95.9287 57.6656 95.9277C57.6656 95.9267 57.6656 95.9258 57.6656 95.9248C57.6656 95.9238 57.6656 95.9228 57.6656 95.9218C57.6656 95.9208 57.6656 95.9198 57.6656 95.9188C57.6656 95.9178 57.6656 95.9168 57.6656 95.9158C57.6656 95.9148 57.6656 95.9138 57.6656 95.9128C57.6656 95.9118 57.6656 95.9108 57.6656 95.9098C57.6656 95.9088 57.6656 95.9078 57.6656 95.9068C57.6656 95.9059 57.6656 95.9049 57.6656 95.9039C57.6656 95.9029 57.6656 95.9019 57.6656 95.9009C57.6656 95.8999 57.6656 95.8989 57.6656 95.8979C57.6656 95.8969 57.6656 95.8959 57.6656 95.8949C57.6656 95.8939 57.6656 95.8929 57.6656 95.8919C57.6656 95.8909 57.6656 95.89 57.6656 95.889C57.6656 95.888 57.6656 95.887 57.6656 95.886C57.6656 95.885 57.6656 95.884 57.6656 95.883C57.6656 95.882 57.6656 95.881 57.6656 95.88C57.6656 95.879 57.6656 95.878 57.6656 95.877C57.6656 95.8761 57.6656 95.8751 57.6656 95.8741C57.6656 95.8731 57.6656 95.8721 57.6656 95.8711C57.6656 95.8701 57.6656 95.8691 57.6656 95.8681C57.6656 95.8671 57.6656 95.8661 57.6656 95.8651C57.6656 95.8642 57.6656 95.8632 57.6656 95.8622C57.6656 95.8612 57.6656 95.8602 57.6656 95.8592C57.6656 95.8582 57.6656 95.8572 57.6656 95.8562C57.6656 95.8552 57.6656 95.8542 57.6656 95.8532C57.6656 95.8523 57.6656 95.8513 57.6656 95.8503C57.6656 95.8493 57.6656 95.8483 57.6656 95.8473C57.6656 95.8463 57.6656 95.8453 57.6656 95.8443C57.6656 95.8433 57.6656 95.8424 57.6656 95.8414C57.6656 95.8404 57.6656 95.8394 57.6656 95.8384C57.6656 95.8374 57.6656 95.8364 57.6656 95.8354C57.6656 95.8344 57.6656 95.8334 57.6656 95.8325C57.6656 95.8315 57.6656 95.8305 57.6656 95.8295C57.6656 95.8285 57.6656 95.8275 57.6656 95.8265C57.6656 95.8255 57.6656 95.8245 57.6656 95.8236C57.6656 95.8226 57.6656 95.8216 57.6656 95.8206C57.6656 95.8196 57.6656 95.8186 57.6656 95.8176C57.6656 95.8166 57.6656 95.8156 57.6656 95.8147C57.6656 95.8137 57.6656 95.8127 57.6656 95.8117C57.6656 95.8107 57.6656 95.8097 57.6656 95.8087C57.6656 95.8077 57.6656 95.8068 57.6656 95.8058C57.6656 95.8048 57.6656 95.8038 57.6656 95.8028C57.6656 95.8018 57.6656 95.8008 57.6656 95.7998C57.6656 95.7989 57.6656 95.7979 57.6656 95.7969C57.6656 95.7959 57.6656 95.7949 57.6656 95.7939C57.6656 95.7929 57.6656 95.7919 57.6656 95.791C57.6656 95.79 57.6656 95.789 57.6656 95.788C57.6656 95.787 57.6656 95.786 57.6656 95.785C57.6656 95.784 57.6656 95.7831 57.6656 95.7821C57.6656 95.7811 57.6656 95.7801 57.6656 95.7791C57.6656 95.7781 57.6656 95.7771 57.6656 95.7762C57.6656 95.7752 57.6656 95.7742 57.6656 95.7732C57.6656 95.7722 57.6656 95.7712 57.6656 95.7702C57.6656 95.7693 57.6656 95.7683 57.6656 95.7673C57.6656 95.7663 57.6656 95.7653 57.6656 95.7643C57.6656 95.7634 57.6656 95.7624 57.6656 95.7614C57.6656 95.7604 57.6656 95.7594 57.6656 95.7584C57.6656 95.7574 57.6656 95.7565 57.6656 95.7555C57.6656 95.7545 57.6656 95.7535 57.6656 95.7525C57.6656 95.7515 57.6656 95.7506 57.6656 95.7496C57.6656 95.7486 57.6656 95.7476 57.6656 95.7466C57.6656 95.7456 57.6656 95.7447 57.6656 95.7437C57.6656 95.7427 57.6656 95.7417 57.6656 95.7407C57.6656 95.7397 57.6656 95.7387 57.6656 95.7378C57.6656 95.7368 57.6656 95.7358 57.6656 95.7348C57.6656 95.7338 57.6656 95.7329 57.6656 95.7319C57.6656 95.7309 57.6656 95.7299 57.6656 95.7289C57.6656 95.7279 57.6656 95.727 57.6656 95.726C57.6656 95.725 57.6656 95.724 57.6656 95.723C57.6656 95.722 57.6656 95.7211 57.6656 95.7201C57.6656 95.7191 57.6656 95.7181 57.6656 95.7171C57.6656 95.7162 57.6656 95.7152 57.6656 95.7142C57.6656 95.7132 57.6656 95.7122 57.6656 95.7112C57.6656 95.7103 57.6656 95.7093 57.6656 95.7083C57.6656 95.7073 57.6656 95.7063 57.6656 95.7054C57.6656 95.7044 57.6656 95.7034 57.6656 95.7024C57.6656 95.7014 57.6656 95.7005 57.6656 95.6995C57.6656 95.6985 57.6656 95.6975 57.6656 95.6965C57.6656 95.6955 57.6656 95.6946 57.6656 95.6936C57.6656 95.6926 57.6656 95.6916 57.6656 95.6906C57.6656 95.6897 57.6656 95.6887 57.6656 95.6877C57.6656 95.6867 57.6656 95.6857 57.6656 95.6848C57.6656 95.6838 57.6656 95.6828 57.6656 95.6818C57.6656 95.6809 57.6656 95.6799 57.6656 95.6789C57.6656 95.6779 57.6656 95.6769 57.6656 95.676C57.6656 95.675 57.6656 95.674 57.6656 95.673C57.6656 95.672 57.6656 95.6711 57.6656 95.6701C57.6656 95.6691 57.6656 95.6681 57.6656 95.6671C57.6656 95.6662 57.6656 95.6652 57.6656 95.6642C57.6656 95.6632 57.6656 95.6623 57.6656 95.6613C57.6656 95.6603 57.6656 95.6593 57.6656 95.6583C57.6656 95.6574 57.6656 95.6564 57.6656 95.6554C57.6656 95.6544 57.6656 95.6535 57.6656 95.6525C57.6656 95.6515 57.6656 95.6505 57.6656 95.6495C57.6656 95.6486 57.6656 95.6476 57.6656 95.6466C57.6656 95.6456 57.6656 95.6447 57.6656 95.6437C57.6656 95.6427 57.6656 95.6417 57.6656 95.6407C57.6656 95.6398 57.6656 95.6388 57.6656 95.6378C57.6656 95.6368 57.6656 95.6359 57.6656 95.6349C57.6656 95.6339 57.6656 95.6329 57.6656 95.632C57.6656 95.631 57.6656 95.63 57.6656 95.629C57.6656 95.6281 57.6656 95.6271 57.6656 95.6261C57.6656 95.6251 57.6656 95.6242 57.6656 95.6232C57.6656 95.6222 57.6656 95.6212 57.6656 95.6203C57.6656 95.6193 57.6656 95.6183 57.6656 95.6173C57.6656 95.6164 57.6656 95.6154 57.6656 95.6144C57.6656 95.6134 57.6656 95.6125 57.6656 95.6115C57.6656 95.6105 57.6656 95.6095 57.6656 95.6086C57.6656 95.6076 57.6656 95.6066 57.6656 95.6056C57.6656 95.6047 57.6656 95.6037 57.6656 95.6027C57.6656 95.6017 57.6656 95.6008 57.6656 95.5998C57.6656 95.5988 57.6656 95.5978 57.6656 95.5969C57.6656 95.5959 57.6656 95.5949 57.6656 95.5939C57.6656 95.593 57.6656 95.592 57.6656 95.591C57.6656 95.59 57.6656 95.5891 57.6656 95.5881C57.6656 95.5871 57.6656 95.5862 57.6656 95.5852C57.6656 95.5842 57.6656 95.5832 57.6656 95.5823C57.6656 95.5813 57.6656 95.5803 57.6656 95.5793C57.6656 95.5784 57.6656 95.5774 57.6656 95.5764C57.6656 95.5755 57.6656 95.5745 57.6656 95.5735C57.6656 95.5725 57.6656 95.5716 57.6656 95.5706C57.6656 95.5696 57.6656 95.5686 57.6656 95.5677C57.6656 95.5667 57.6656 95.5657 57.6656 95.5648C57.6656 95.5638 57.6656 95.5628 57.6656 95.5618C57.6656 95.5609 57.6656 95.5599 57.6656 95.5589C57.6656 95.558 57.6656 95.557 57.6656 95.556C57.6656 95.555 57.6656 95.5541 57.6656 95.5531C57.6656 95.5521 57.6656 95.5512 57.6656 95.5502C57.6656 95.5492 57.6656 95.5483 57.6656 95.5473C57.6656 95.5463 57.6656 95.5453 57.6656 95.5444C57.6656 95.5434 57.6656 95.5424 57.6656 95.5415C57.6656 95.5405 57.6656 95.5395 57.6656 95.5385C57.6656 95.5376 57.6656 95.5366 57.6656 95.5356C57.6656 95.5347 57.6656 95.5337 57.6656 95.5327C57.6656 95.5318 57.6656 95.5308 57.6656 95.5298C57.6656 95.5289 57.6656 95.5279 57.6656 95.5269C57.6656 95.5259 57.6656 95.525 57.6656 95.524C57.6656 95.523 57.6656 95.5221 57.6656 95.5211C57.6656 95.5201 57.6656 95.5192 57.6656 95.5182C57.6656 95.5172 57.6656 95.5163 57.6656 95.5153C57.6656 95.5143 57.6656 95.5134 57.6656 95.5124C57.6656 95.5114 57.6656 95.5104 57.6656 95.5095C57.6656 95.5085 57.6656 95.5075 57.6656 95.5066C57.6656 95.5056 57.6656 95.5046 57.6656 95.5037C57.6656 95.5027 57.6656 95.5017 57.6656 95.5008C57.6656 95.4998 57.6656 95.4988 57.6656 95.4979C57.6656 95.4969 57.6656 95.4959 57.6656 95.495C57.6656 95.494 57.6656 95.493 57.6656 95.4921C57.6656 95.4911 57.6656 95.4901 57.6656 95.4892C57.6656 95.4882 57.6656 95.4872 57.6656 95.4863C57.6656 95.4853 57.6656 95.4843 57.6656 95.4834C57.6656 95.4824 57.6656 95.4814 57.6656 95.4805C57.6656 95.4795 57.6656 95.4785 57.6656 95.4776C57.6656 95.4766 57.6656 95.4756 57.6656 95.4747C57.6656 95.4737 57.6656 95.4727 57.6656 95.4718C57.6656 95.4708 57.6656 95.4698 57.6656 95.4689C57.6656 95.4679 57.6656 95.467 57.6656 95.466C57.6656 95.465 57.6656 95.4641 57.6656 95.4631C57.6656 95.4621 57.6656 95.4612 57.6656 95.4602C57.6656 95.4592 57.6656 95.4583 57.6656 95.4573C57.6656 95.4563 57.6656 95.4554 57.6656 95.4544C57.6656 95.4534 57.6656 95.4525 57.6656 95.4515C57.6656 95.4506 57.6656 95.4496 57.6656 95.4486C57.6656 95.4477 57.6656 95.4467 57.6656 95.4457C57.6656 95.4448 57.6656 95.4438 57.6656 95.4428C57.6656 95.4419 57.6656 95.4409 57.6656 95.44C57.6656 95.439 57.6656 95.438 57.6656 95.4371C57.6656 95.4361 57.6656 95.4351 57.6656 95.4342C57.6656 95.4332 57.6656 95.4323 57.6656 95.4313C57.6656 95.4303 57.6656 95.4294 57.6656 95.4284C57.6656 95.4274 57.6656 95.4265 57.6656 95.4255C57.6656 95.4246 57.6656 95.4236 57.6656 95.4226C57.6656 95.4217 57.6656 95.4207 57.6656 95.4197C57.6656 95.4188 57.6656 95.4178 57.6656 95.4169C57.6656 95.4159 57.6656 95.4149 57.6656 95.414C57.6656 95.413 57.6656 95.412 57.6656 95.4111C57.6656 95.4101 57.6656 95.4092 57.6656 95.4082C57.6656 95.4072 57.6656 95.4063 57.6656 95.4053C57.6656 95.4044 57.6656 95.4034 57.6656 95.4024C57.6656 95.4015 57.6656 95.4005 57.6656 95.3996C57.6656 95.3986 57.6656 95.3976 57.6656 95.3967C57.6656 95.3957 57.6656 95.3948 57.6656 95.3938C57.6656 95.3928 57.6656 95.3919 57.6656 95.3909C57.6656 95.39 57.6656 95.389 57.6656 95.388C57.6656 95.3871 57.6656 95.3861 57.6656 95.3852C57.6656 95.3842 57.6656 95.3832 57.6656 95.3823C57.6656 95.3813 57.6656 95.3804 57.6656 95.3794C57.6656 95.3784 57.6656 95.3775 57.6656 95.3765C57.6656 95.3756 57.6656 95.3746 57.6656 95.3736C57.6656 95.3727 57.6656 95.3717 57.6656 95.3708C57.6656 95.3698 57.6656 95.3689 57.6656 95.3679C57.6656 95.3669 57.6656 95.366 57.6656 95.365C57.6656 95.3641 57.6656 95.3631 57.6656 95.3621C57.6656 95.3612 57.6656 95.3602 57.6656 95.3593C57.6656 95.3583 57.6656 95.3574 57.6656 95.3564C57.6656 95.3554 57.6656 95.3545 57.6656 95.3535C57.6656 95.3526 57.6656 95.3516 57.6656 95.3507C57.6656 95.3497 57.6656 95.3487 57.6656 95.3478C57.6656 95.3468 57.6656 95.3459 57.6656 95.3449C57.6656 95.344 57.6656 95.343 57.6656 95.342C57.6656 95.3411 57.6656 95.3401 57.6656 95.3392C57.6656 95.3382 57.6656 95.3373 57.6656 95.3363C57.6656 95.3353 57.6656 95.3344 57.6656 95.3334C57.6656 95.3325 57.6656 95.3315 57.6656 95.3306C57.6656 95.3296 57.6656 95.3287 57.6656 95.3277C57.6656 95.3267 57.6656 95.3258 57.6656 95.3248C57.6656 95.3239 57.6656 95.3229 57.6656 95.322C57.6656 95.321 57.6656 95.3201 57.6656 95.3191C57.6656 95.3181 57.6656 95.3172 57.6656 95.3162C57.6656 95.3153 57.6656 95.3143 57.6656 95.3134C57.6656 95.3124 57.6656 95.3115 57.6656 95.3105C57.6656 95.3096 57.6656 95.3086 57.6656 95.3076C57.6656 95.3067 57.6656 95.3057 57.6656 95.3048C57.6656 95.3038 57.6656 95.3029 57.6656 95.3019C57.6656 95.301 57.6656 95.3 57.6656 95.2991C57.6656 95.2981 57.6656 95.2971 57.6656 95.2962C57.6656 95.2952 57.6656 95.2943 57.6656 95.2933C57.6656 95.2924 57.6656 95.2914 57.6656 95.2905C57.6656 95.2895 57.6656 95.2886 57.6656 95.2876C57.6656 95.2867 57.6656 95.2857 57.6656 95.2848C57.6656 95.2838 57.6656 95.2829 57.6656 95.2819C57.6656 95.2809 57.6656 95.28 57.6656 95.279C57.6656 95.2781 57.6656 95.2771 57.6656 95.2762C57.6656 95.2752 57.6656 95.2743 57.6656 95.2733C57.6656 95.2724 57.6656 95.2714 57.6656 95.2705C57.6656 95.2695 57.6656 95.2686 57.6656 95.2676C57.6656 95.2667 57.6656 95.2657 57.6656 95.2648C57.6656 95.2638 57.6656 95.2629 57.6656 95.2619C57.6656 95.261 57.6656 95.26 57.6656 95.2591C57.6656 95.2581 57.6656 95.2572 57.6656 95.2562C57.6656 95.2553 57.6656 95.2543 57.6656 95.2534C57.6656 95.2524 57.6656 95.2515 57.6656 95.2505C57.6656 95.2496 57.6656 95.2486 57.6656 95.2477C57.6656 95.2467 57.6656 95.2457 57.6656 95.2448C57.6656 95.2438 57.6656 95.2429 57.6656 95.242C57.6656 95.241 57.6656 95.2401 57.6656 95.2391C57.6656 95.2382 57.6656 95.2372 57.6656 95.2363C57.6656 95.2353 57.6656 95.2344 57.6656 95.2334C57.6656 95.2325 57.6656 95.2315 57.6656 95.2306C57.6656 95.2296 57.6656 95.2287 57.6656 95.2277C57.6656 95.2268 57.6656 95.2258 57.6656 95.2249C57.6656 95.2239 57.6656 95.223 57.6656 95.222C57.6656 95.2211 57.6656 95.2201 57.6656 95.2192C57.6656 95.2182 57.6656 95.2173 57.6656 95.2163C57.6656 95.2154 57.6656 95.2144 57.6656 95.2135C57.6656 95.2125 57.6656 95.2116 57.6656 95.2106C57.6656 95.2097 57.6656 95.2087 57.6656 95.2078C57.6656 95.2069 57.6656 95.2059 57.6656 95.205C57.6656 95.204 57.6656 95.2031 57.6656 95.2021C57.6656 95.2012 57.6656 95.2002 57.6656 95.1993C57.6656 95.1983 57.6656 95.1974 57.6656 95.1964C57.6656 95.1955 57.6656 95.1945 57.6656 95.1936C57.6656 95.1926 57.6656 95.1917 57.6656 95.1908C57.6656 95.1898 57.6656 95.1889 57.6656 95.1879C57.6656 95.187 57.6656 95.186 57.6656 95.1851C57.6656 95.1841 57.6656 95.1832 57.6656 95.1822C57.6656 95.1813 57.6656 95.1804 57.6656 95.1794C57.6656 95.1785 57.6656 95.1775 57.6656 95.1766C57.6656 95.1756 57.6656 95.1747 57.6656 95.1737C57.6656 95.1728 57.6656 95.1718 57.6656 95.1709C57.6656 95.17 57.6656 95.169 57.6656 95.1681C57.6656 95.1671 57.6656 95.1662 57.6656 95.1652C57.6656 95.1643 57.6656 95.1633 57.6656 95.1624C57.6656 95.1615 57.6656 95.1605 57.6656 95.1596C57.6656 95.1586 57.6656 95.1577 57.6656 95.1567C57.6656 95.1558 57.6656 95.1548 57.6656 95.1539C57.6656 95.153 57.6656 95.152 57.6656 95.1511C57.6656 95.1501 57.6656 95.1492 57.6656 95.1482C57.6656 95.1473 57.6656 95.1464 57.6656 95.1454C57.6656 95.1445 57.6656 95.1435 57.6656 95.1426C57.6656 95.1416 57.6656 95.1407 57.6656 95.1398C57.6656 95.1388 57.6656 95.1379 57.6656 95.1369C57.6656 95.136 57.6656 95.135 57.6656 95.1341C57.6656 95.1332 57.6656 95.1322 57.6656 95.1313C57.6656 95.1303 57.6656 95.1294 57.6656 95.1284C57.6656 95.1275 57.6656 95.1266 57.6656 95.1256C57.6656 95.1247 57.6656 95.1237 57.6656 95.1228C57.6656 95.1219 57.6656 95.1209 57.6656 95.12C57.6656 95.119 57.6656 95.1181 57.6656 95.1171C57.6656 95.1162 57.6656 95.1153 57.6656 95.1143C57.6656 95.1134 57.6656 95.1124 57.6656 95.1115C57.6656 95.1106 57.6656 95.1096 57.6656 95.1087C57.6656 95.1077 57.6656 95.1068 57.6656 95.1059C57.6656 95.1049 57.6656 95.104 57.6656 95.103C57.6656 95.1021 57.6656 95.1012 57.6656 95.1002C57.6656 95.0993 57.6656 95.0983 57.6656 95.0974C57.6656 95.0965 57.6656 95.0955 57.6656 95.0946C57.6656 95.0936 57.6656 95.0927 57.6656 95.0918C57.6656 95.0908 57.6656 95.0899 57.6656 95.0889C57.6656 95.088 57.6656 95.0871 57.6656 95.0861C57.6656 95.0852 57.6656 95.0842 57.6656 95.0833C57.6656 95.0824 57.6656 95.0814 57.6656 95.0805C57.6656 95.0795 57.6656 95.0786 57.6656 95.0777C57.6656 95.0767 57.6656 95.0758 57.6656 95.0749C57.6656 95.0739 57.6656 95.073 57.6656 95.072C57.6656 95.0711 57.6656 95.0702 57.6656 95.0692C57.6656 95.0683 57.6656 95.0674 57.6656 95.0664C57.6656 95.0655 57.6656 95.0645 57.6656 95.0636C57.6656 95.0627 57.6656 95.0617 57.6656 95.0608C57.6656 95.0599 57.6656 95.0589 57.6656 95.058C57.6656 95.057 57.6656 95.0561 57.6656 95.0552C57.6656 95.0542 57.6656 95.0533 57.6656 95.0524C57.6656 95.0514 57.6656 95.0505 57.6656 95.0495C57.6656 95.0486 57.6656 95.0477 57.6656 95.0467C57.6656 95.0458 57.6656 95.0449 57.6656 95.0439C57.6656 95.043 57.6656 95.0421 57.6656 95.0411C57.6656 95.0402 57.6656 95.0392 57.6656 95.0383C57.6656 95.0374 57.6656 95.0364 57.6656 95.0355C57.6656 95.0346 57.6656 95.0336 57.6656 95.0327C57.6656 95.0318 57.6656 95.0308 57.6656 95.0299C57.6656 95.029 57.6656 95.028 57.6656 95.0271C57.6656 95.0262 57.6656 95.0252 57.6656 95.0243C57.6656 95.0233 57.6656 95.0224 57.6656 95.0215C57.6656 95.0205 57.6656 95.0196 57.6656 95.0187C57.6656 95.0177 57.6656 95.0168 57.6656 95.0159C57.6656 95.0149 57.6656 95.014 57.6656 95.0131C57.6656 95.0121 57.6656 95.0112 57.6656 95.0103C57.6656 95.0093 57.6656 95.0084 57.6656 95.0075C57.6656 95.0065 57.6656 95.0056 57.6656 95.0047C57.6656 95.0037 57.6656 95.0028 57.6656 95.0019C57.6656 95.0009 57.6656 95 57.6656 94.9991C57.6656 94.9981 57.6656 94.9972 57.6656 94.9963C57.6656 94.9953 57.6656 94.9944 57.6656 94.9935C57.6656 94.9925 57.6656 94.9916 57.6656 94.9907C57.6656 94.9897 57.6656 94.9888 57.6656 94.9879C57.6656 94.9869 57.6656 94.986 57.6656 94.9851C57.6656 94.9841 57.6656 94.9832 57.6656 94.9823C57.6656 94.9814 57.6656 94.9804 57.6656 94.9795C57.6656 94.9786 57.6656 94.9776 57.6656 94.9767C57.6656 94.9758 57.6656 94.9748 57.6656 94.9739C57.6656 94.973 57.6656 94.972 57.6656 94.9711C57.6656 94.9702 57.6656 94.9692 57.6656 94.9683C57.6656 94.9674 57.6656 94.9665 57.6656 94.9655C57.6656 94.9646 57.6656 94.9637 57.6656 94.9627C57.6656 94.9618 57.6656 94.9609 57.6656 94.9599C57.6656 94.959 57.6656 94.9581 57.6656 94.9571C57.6656 94.9562 57.6656 94.9553 57.6656 94.9544C57.6656 94.9534 57.6656 94.9525 57.6656 94.9516C57.6656 94.9506 57.6656 94.9497 57.6656 94.9488C57.6656 94.9479 57.6656 94.9469 57.6656 94.946C57.6656 94.9451 57.6656 94.9441 57.6656 94.9432C57.6656 94.9423 57.6656 94.9413 57.6656 94.9404C57.6656 94.9395 57.6656 94.9386 57.6656 94.9376C57.6656 94.9367 57.6656 94.9358 57.6656 94.9348C57.6656 94.9339 57.6656 94.933 57.6656 94.9321C57.6656 94.9311 57.6656 94.9302 57.6656 94.9293C57.6656 94.9283 57.6656 94.9274 57.6656 94.9265C57.6656 94.9256 57.6656 94.9246 57.6656 94.9237C57.6656 94.9228 57.6656 94.9219 57.6656 94.9209C57.6656 94.92 57.6656 94.9191 57.6656 94.9181C57.6656 94.9172 57.6656 94.9163 57.6656 94.9154C57.6656 94.9144 57.6656 94.9135 57.6656 94.9126C57.6656 94.9117 57.6656 94.9107 57.6656 94.9098C57.6656 94.9089 57.6656 94.9079 57.6656 94.907C57.6656 94.9061 57.6656 94.9052 57.6656 94.9042C57.6656 94.9033 57.6656 94.9024 57.6656 94.9015C57.6656 94.9005 57.6656 94.8996 57.6656 94.8987C57.6656 94.8978 57.6656 94.8968 57.6656 94.8959C57.6656 94.895 57.6656 94.8941 57.6656 94.8931C57.6656 94.8922 57.6656 94.8913 57.6656 94.8904C57.6656 94.8894 57.6656 94.8885 57.6656 94.8876C57.6656 94.8867 57.6656 94.8857 57.6656 94.8848C57.6656 94.8839 57.6656 94.883 57.6656 94.882C57.6656 94.8811 57.6656 94.8802 57.6656 94.8793C57.6656 94.8783 57.6656 94.8774 57.6656 94.8765C57.6656 94.8756 57.6656 94.8746 57.6656 94.8737C57.6656 94.8728 57.6656 94.8719 57.6656 94.8709C57.6656 94.87 57.6656 94.8691 57.6656 94.8682C57.6656 94.8672 57.6656 94.8663 57.6656 94.8654C57.6656 94.8645 57.6656 94.8635 57.6656 94.8626C57.6656 94.8617 57.6656 94.8608 57.6656 94.8598C57.6656 94.8589 57.6656 94.858 57.6656 94.8571C57.6656 94.8562 57.6656 94.8552 57.6656 94.8543C57.6656 94.8534 57.6656 94.8525 57.6656 94.8515C57.6656 94.8506 57.6656 94.8497 57.6656 94.8488C57.6656 94.8479 57.6656 94.8469 57.6656 94.846C57.6656 94.8451 57.6656 94.8442 57.6656 94.8432C57.6656 94.8423 57.6656 94.8414 57.6656 94.8405C57.6656 94.8396 57.6656 94.8386 57.6656 94.8377C57.6656 94.8368 57.6656 94.8359 57.6656 94.8349C57.6656 94.834 57.6656 94.8331 57.6656 94.8322C57.6656 94.8313 57.6656 94.8303 57.6656 94.8294C57.6656 94.8285 57.6656 94.8276 57.6656 94.8267C57.6656 94.8257 57.6656 94.8248 57.6656 94.8239C57.6656 94.823 57.6656 94.8221 57.6656 94.8211C57.6656 94.8202 57.6656 94.8193 57.6656 94.8184C57.6656 94.8174 57.6656 94.8165 57.6656 94.8156C57.6656 94.8147 57.6656 94.8138 57.6656 94.8128C57.6656 94.8119 57.6656 94.811 57.6656 94.8101C57.6656 94.8092 57.6656 94.8082 57.6656 94.8073C57.6656 94.8064 57.6656 94.8055 57.6656 94.8046C57.6656 94.8037 57.6656 94.8027 57.6656 94.8018C57.6656 94.8009 57.6656 94.8 57.6656 94.7991C57.6656 94.7981 57.6656 94.7972 57.6656 94.7963C57.6656 94.7954 57.6656 94.7945 57.6656 94.7935C57.6656 94.7926 57.6656 94.7917 57.6656 94.7908C57.6656 94.7899 57.6656 94.789 57.6656 94.788C57.6656 94.7871 57.6656 94.7862 57.6656 94.7853C57.6656 94.7844 57.6656 94.7834 57.6656 94.7825C57.6656 94.7816 57.6656 94.7807 57.6656 94.7798C57.6656 94.7789 57.6656 94.7779 57.6656 94.777C57.6656 94.7761 57.6656 94.7752 57.6656 94.7743C57.6656 94.7734 57.6656 94.7724 57.6656 94.7715C57.6656 94.7706 57.6656 94.7697 57.6656 94.7688C57.6656 94.7678 57.6656 94.7669 57.6656 94.766C57.6656 94.7651 57.6656 94.7642 57.6656 94.7633C57.6656 94.7624 57.6656 94.7614 57.6656 94.7605C57.6656 94.7596 57.6656 94.7587 57.6656 94.7578C57.6656 94.7569 57.6656 94.7559 57.6656 94.755C57.6656 94.7541 57.6656 94.7532 57.6656 94.7523C57.6656 94.7514 57.6656 94.7504 57.6656 94.7495C57.6656 94.7486 57.6656 94.7477 57.6656 94.7468C57.6656 94.7459 57.6656 94.745 57.6656 94.744C57.6656 94.7431 57.6656 94.7422 57.6656 94.7413C57.6656 94.7404 57.6656 94.7395 57.6656 94.7385C57.6656 94.7376 57.6656 94.7367 57.6656 94.7358C57.6656 94.7349 57.6656 94.734 57.6656 94.7331C57.6656 94.7321 57.6656 94.7312 57.6656 94.7303C57.6656 94.7294 57.6656 94.7285 57.6656 94.7276C57.6656 94.7267 57.6656 94.7257 57.6656 94.7248C57.6656 94.7239 57.6656 94.723 57.6656 94.7221C57.6656 94.7212 57.6656 94.7203 57.6656 94.7194C57.6656 94.7184 57.6656 94.7175 57.6656 94.7166C57.6656 94.7157 57.6656 94.7148 57.6656 94.7139C57.6656 94.713 57.6656 94.7121 57.6656 94.7111C57.6656 94.7102 57.6656 94.7093 57.6656 94.7084C57.6656 94.7075 57.6656 94.7066 57.6656 94.7057C57.6656 94.7048 57.6656 94.7038 57.6656 94.7029C57.6656 94.702 57.6656 94.7011 57.6656 94.7002C57.6656 94.6993 57.6656 94.6984 57.6656 94.6975C57.6656 94.6965 57.6656 94.6956 57.6656 94.6947C57.6656 94.6938 57.6656 94.6929 57.6656 94.692C57.6656 94.6911 57.6656 94.6902 57.6656 94.6893C57.6656 94.6883 57.6656 94.6874 57.6656 94.6865C57.6656 94.6856 57.6656 94.6847 57.6656 94.6838C57.6656 94.6829 57.6656 94.682 57.6656 94.6811C57.6656 94.6801 57.6656 94.6792 57.6656 94.6783C57.6656 94.6774 57.6656 94.6765 57.6656 94.6756C57.6656 94.6747 57.6656 94.6738 57.6656 94.6729C57.6656 94.672 57.6656 94.671 57.6656 94.6701C57.6656 94.6692 57.6656 94.6683 57.6656 94.6674C57.6656 94.6665 57.6656 94.6656 57.6656 94.6647C57.6656 94.6638 57.6656 94.6629 57.6656 94.6619C57.6656 94.661 57.6656 94.6601 57.6656 94.6592C57.6656 94.6583 57.6656 94.6574 57.6656 94.6565C57.6656 94.6556 57.6656 94.6547 57.6656 94.6538C57.6656 94.6529 57.6656 94.652 57.6656 94.651C57.6656 94.6501 57.6656 94.6492 57.6656 94.6483C57.6656 94.6474 57.6656 94.6465 57.6656 94.6456C57.6656 94.6447 57.6656 94.6438 57.6656 94.6429C57.6656 94.642 57.6656 94.6411 57.6656 94.6401C57.6656 94.6392 57.6656 94.6383 57.6656 94.6374C57.6656 94.6365 57.6656 94.6356 57.6656 94.6347C57.6656 94.6338 57.6656 94.6329 57.6656 94.632C57.6656 94.6311 57.6656 94.6302 57.6656 94.6293C57.6656 94.6284 57.6656 94.6274 57.6656 94.6265C57.6656 94.6256 57.6656 94.6247 57.6656 94.6238C57.6656 94.6229 57.6656 94.622 57.6656 94.6211C57.6656 94.6202 57.6656 94.6193 57.6656 94.6184C57.6656 94.6175 57.6656 94.6166 57.6656 94.6157C57.6656 94.6148 57.6656 94.6139 57.6656 94.6129C57.6656 94.612 57.6656 94.6111 57.6656 94.6102C57.6656 94.6093 57.6656 94.6084 57.6656 94.6075C57.6656 94.6066 57.6656 94.6057 57.6656 94.6048C57.6656 94.6039 57.6656 94.603 57.6656 94.6021C57.6656 94.6012 57.6656 94.6003 57.6656 94.5994C57.6656 94.5985 57.6656 94.5976 57.6656 94.5967C57.6656 94.5958 57.6656 94.5948 57.6656 94.5939C57.6656 94.593 57.6656 94.5921 57.6656 94.5912C57.6656 94.5903 57.6656 94.5894 57.6656 94.5885C57.6656 94.5876 57.6656 94.5867 57.6656 94.5858C57.6656 94.5849 57.6656 94.584 57.6656 94.5831C57.6656 94.5822 57.6656 94.5813 57.6656 94.5804C57.6656 94.5795 57.6656 94.5786 57.6656 94.5777C57.6656 94.5768 57.6656 94.5759 57.6656 94.575C57.6656 94.5741 57.6656 94.5732 57.6656 94.5723C57.6656 94.5714 57.6656 94.5705 57.6656 94.5695C57.6656 94.5686 57.6656 94.5677 57.6656 94.5668C57.6656 94.5659 57.6656 94.565 57.6656 94.5641C57.6656 94.5632 57.6656 94.5623 57.6656 94.5614C57.6656 94.5605 57.6656 94.5596 57.6656 94.5587C57.6656 94.5578 57.6656 94.5569 57.6656 94.556C57.6656 94.5551 57.6656 94.5542 57.6656 94.5533C57.6656 94.5524 57.6656 94.5515 57.6656 94.5506C57.6656 94.5497 57.6656 94.5488 57.6656 94.5479C57.6656 94.547 57.6656 94.5461 57.6656 94.5452C57.6656 94.5443 57.6656 94.5434 57.6656 94.5425C57.6656 94.5416 57.6656 94.5407 57.6656 94.5398C57.6656 94.5389 57.6656 94.538 57.6656 94.5371C57.6656 94.5362 57.6656 94.5353 57.6656 94.5344H55.6656C55.6656 94.5353 55.6656 94.5362 55.6656 94.5371C55.6656 94.538 55.6656 94.5389 55.6656 94.5398C55.6656 94.5407 55.6656 94.5416 55.6656 94.5425C55.6656 94.5434 55.6656 94.5443 55.6656 94.5452C55.6656 94.5461 55.6656 94.547 55.6656 94.5479C55.6656 94.5488 55.6656 94.5497 55.6656 94.5506C55.6656 94.5515 55.6656 94.5524 55.6656 94.5533C55.6656 94.5542 55.6656 94.5551 55.6656 94.556C55.6656 94.5569 55.6656 94.5578 55.6656 94.5587C55.6656 94.5596 55.6656 94.5605 55.6656 94.5614C55.6656 94.5623 55.6656 94.5632 55.6656 94.5641C55.6656 94.565 55.6656 94.5659 55.6656 94.5668C55.6656 94.5677 55.6656 94.5686 55.6656 94.5695C55.6656 94.5705 55.6656 94.5714 55.6656 94.5723C55.6656 94.5732 55.6656 94.5741 55.6656 94.575C55.6656 94.5759 55.6656 94.5768 55.6656 94.5777C55.6656 94.5786 55.6656 94.5795 55.6656 94.5804C55.6656 94.5813 55.6656 94.5822 55.6656 94.5831C55.6656 94.584 55.6656 94.5849 55.6656 94.5858C55.6656 94.5867 55.6656 94.5876 55.6656 94.5885C55.6656 94.5894 55.6656 94.5903 55.6656 94.5912C55.6656 94.5921 55.6656 94.593 55.6656 94.5939C55.6656 94.5948 55.6656 94.5958 55.6656 94.5967C55.6656 94.5976 55.6656 94.5985 55.6656 94.5994C55.6656 94.6003 55.6656 94.6012 55.6656 94.6021C55.6656 94.603 55.6656 94.6039 55.6656 94.6048C55.6656 94.6057 55.6656 94.6066 55.6656 94.6075C55.6656 94.6084 55.6656 94.6093 55.6656 94.6102C55.6656 94.6111 55.6656 94.612 55.6656 94.6129C55.6656 94.6139 55.6656 94.6148 55.6656 94.6157C55.6656 94.6166 55.6656 94.6175 55.6656 94.6184C55.6656 94.6193 55.6656 94.6202 55.6656 94.6211C55.6656 94.622 55.6656 94.6229 55.6656 94.6238C55.6656 94.6247 55.6656 94.6256 55.6656 94.6265C55.6656 94.6274 55.6656 94.6284 55.6656 94.6293C55.6656 94.6302 55.6656 94.6311 55.6656 94.632C55.6656 94.6329 55.6656 94.6338 55.6656 94.6347C55.6656 94.6356 55.6656 94.6365 55.6656 94.6374C55.6656 94.6383 55.6656 94.6392 55.6656 94.6401C55.6656 94.6411 55.6656 94.642 55.6656 94.6429C55.6656 94.6438 55.6656 94.6447 55.6656 94.6456C55.6656 94.6465 55.6656 94.6474 55.6656 94.6483C55.6656 94.6492 55.6656 94.6501 55.6656 94.651C55.6656 94.652 55.6656 94.6529 55.6656 94.6538C55.6656 94.6547 55.6656 94.6556 55.6656 94.6565C55.6656 94.6574 55.6656 94.6583 55.6656 94.6592C55.6656 94.6601 55.6656 94.661 55.6656 94.6619C55.6656 94.6629 55.6656 94.6638 55.6656 94.6647C55.6656 94.6656 55.6656 94.6665 55.6656 94.6674C55.6656 94.6683 55.6656 94.6692 55.6656 94.6701C55.6656 94.671 55.6656 94.672 55.6656 94.6729C55.6656 94.6738 55.6656 94.6747 55.6656 94.6756C55.6656 94.6765 55.6656 94.6774 55.6656 94.6783C55.6656 94.6792 55.6656 94.6801 55.6656 94.6811C55.6656 94.682 55.6656 94.6829 55.6656 94.6838C55.6656 94.6847 55.6656 94.6856 55.6656 94.6865C55.6656 94.6874 55.6656 94.6883 55.6656 94.6893C55.6656 94.6902 55.6656 94.6911 55.6656 94.692C55.6656 94.6929 55.6656 94.6938 55.6656 94.6947C55.6656 94.6956 55.6656 94.6965 55.6656 94.6975C55.6656 94.6984 55.6656 94.6993 55.6656 94.7002C55.6656 94.7011 55.6656 94.702 55.6656 94.7029C55.6656 94.7038 55.6656 94.7048 55.6656 94.7057C55.6656 94.7066 55.6656 94.7075 55.6656 94.7084C55.6656 94.7093 55.6656 94.7102 55.6656 94.7111C55.6656 94.7121 55.6656 94.713 55.6656 94.7139C55.6656 94.7148 55.6656 94.7157 55.6656 94.7166C55.6656 94.7175 55.6656 94.7184 55.6656 94.7194C55.6656 94.7203 55.6656 94.7212 55.6656 94.7221C55.6656 94.723 55.6656 94.7239 55.6656 94.7248C55.6656 94.7257 55.6656 94.7267 55.6656 94.7276C55.6656 94.7285 55.6656 94.7294 55.6656 94.7303C55.6656 94.7312 55.6656 94.7321 55.6656 94.7331C55.6656 94.734 55.6656 94.7349 55.6656 94.7358C55.6656 94.7367 55.6656 94.7376 55.6656 94.7385C55.6656 94.7395 55.6656 94.7404 55.6656 94.7413C55.6656 94.7422 55.6656 94.7431 55.6656 94.744C55.6656 94.745 55.6656 94.7459 55.6656 94.7468C55.6656 94.7477 55.6656 94.7486 55.6656 94.7495C55.6656 94.7504 55.6656 94.7514 55.6656 94.7523C55.6656 94.7532 55.6656 94.7541 55.6656 94.755C55.6656 94.7559 55.6656 94.7569 55.6656 94.7578C55.6656 94.7587 55.6656 94.7596 55.6656 94.7605C55.6656 94.7614 55.6656 94.7624 55.6656 94.7633C55.6656 94.7642 55.6656 94.7651 55.6656 94.766C55.6656 94.7669 55.6656 94.7678 55.6656 94.7688C55.6656 94.7697 55.6656 94.7706 55.6656 94.7715C55.6656 94.7724 55.6656 94.7734 55.6656 94.7743C55.6656 94.7752 55.6656 94.7761 55.6656 94.777C55.6656 94.7779 55.6656 94.7789 55.6656 94.7798C55.6656 94.7807 55.6656 94.7816 55.6656 94.7825C55.6656 94.7834 55.6656 94.7844 55.6656 94.7853C55.6656 94.7862 55.6656 94.7871 55.6656 94.788C55.6656 94.789 55.6656 94.7899 55.6656 94.7908C55.6656 94.7917 55.6656 94.7926 55.6656 94.7935C55.6656 94.7945 55.6656 94.7954 55.6656 94.7963C55.6656 94.7972 55.6656 94.7981 55.6656 94.7991C55.6656 94.8 55.6656 94.8009 55.6656 94.8018C55.6656 94.8027 55.6656 94.8037 55.6656 94.8046C55.6656 94.8055 55.6656 94.8064 55.6656 94.8073C55.6656 94.8082 55.6656 94.8092 55.6656 94.8101C55.6656 94.811 55.6656 94.8119 55.6656 94.8128C55.6656 94.8138 55.6656 94.8147 55.6656 94.8156C55.6656 94.8165 55.6656 94.8174 55.6656 94.8184C55.6656 94.8193 55.6656 94.8202 55.6656 94.8211C55.6656 94.8221 55.6656 94.823 55.6656 94.8239C55.6656 94.8248 55.6656 94.8257 55.6656 94.8267C55.6656 94.8276 55.6656 94.8285 55.6656 94.8294C55.6656 94.8303 55.6656 94.8313 55.6656 94.8322C55.6656 94.8331 55.6656 94.834 55.6656 94.8349C55.6656 94.8359 55.6656 94.8368 55.6656 94.8377C55.6656 94.8386 55.6656 94.8396 55.6656 94.8405C55.6656 94.8414 55.6656 94.8423 55.6656 94.8432C55.6656 94.8442 55.6656 94.8451 55.6656 94.846C55.6656 94.8469 55.6656 94.8479 55.6656 94.8488C55.6656 94.8497 55.6656 94.8506 55.6656 94.8515C55.6656 94.8525 55.6656 94.8534 55.6656 94.8543C55.6656 94.8552 55.6656 94.8562 55.6656 94.8571C55.6656 94.858 55.6656 94.8589 55.6656 94.8598C55.6656 94.8608 55.6656 94.8617 55.6656 94.8626C55.6656 94.8635 55.6656 94.8645 55.6656 94.8654C55.6656 94.8663 55.6656 94.8672 55.6656 94.8682C55.6656 94.8691 55.6656 94.87 55.6656 94.8709C55.6656 94.8719 55.6656 94.8728 55.6656 94.8737C55.6656 94.8746 55.6656 94.8756 55.6656 94.8765C55.6656 94.8774 55.6656 94.8783 55.6656 94.8793C55.6656 94.8802 55.6656 94.8811 55.6656 94.882C55.6656 94.883 55.6656 94.8839 55.6656 94.8848C55.6656 94.8857 55.6656 94.8867 55.6656 94.8876C55.6656 94.8885 55.6656 94.8894 55.6656 94.8904C55.6656 94.8913 55.6656 94.8922 55.6656 94.8931C55.6656 94.8941 55.6656 94.895 55.6656 94.8959C55.6656 94.8968 55.6656 94.8978 55.6656 94.8987C55.6656 94.8996 55.6656 94.9005 55.6656 94.9015C55.6656 94.9024 55.6656 94.9033 55.6656 94.9042C55.6656 94.9052 55.6656 94.9061 55.6656 94.907C55.6656 94.9079 55.6656 94.9089 55.6656 94.9098C55.6656 94.9107 55.6656 94.9117 55.6656 94.9126C55.6656 94.9135 55.6656 94.9144 55.6656 94.9154C55.6656 94.9163 55.6656 94.9172 55.6656 94.9181C55.6656 94.9191 55.6656 94.92 55.6656 94.9209C55.6656 94.9219 55.6656 94.9228 55.6656 94.9237C55.6656 94.9246 55.6656 94.9256 55.6656 94.9265C55.6656 94.9274 55.6656 94.9283 55.6656 94.9293C55.6656 94.9302 55.6656 94.9311 55.6656 94.9321C55.6656 94.933 55.6656 94.9339 55.6656 94.9348C55.6656 94.9358 55.6656 94.9367 55.6656 94.9376C55.6656 94.9386 55.6656 94.9395 55.6656 94.9404C55.6656 94.9413 55.6656 94.9423 55.6656 94.9432C55.6656 94.9441 55.6656 94.9451 55.6656 94.946C55.6656 94.9469 55.6656 94.9479 55.6656 94.9488C55.6656 94.9497 55.6656 94.9506 55.6656 94.9516C55.6656 94.9525 55.6656 94.9534 55.6656 94.9544C55.6656 94.9553 55.6656 94.9562 55.6656 94.9571C55.6656 94.9581 55.6656 94.959 55.6656 94.9599C55.6656 94.9609 55.6656 94.9618 55.6656 94.9627C55.6656 94.9637 55.6656 94.9646 55.6656 94.9655C55.6656 94.9665 55.6656 94.9674 55.6656 94.9683C55.6656 94.9692 55.6656 94.9702 55.6656 94.9711C55.6656 94.972 55.6656 94.973 55.6656 94.9739C55.6656 94.9748 55.6656 94.9758 55.6656 94.9767C55.6656 94.9776 55.6656 94.9786 55.6656 94.9795C55.6656 94.9804 55.6656 94.9814 55.6656 94.9823C55.6656 94.9832 55.6656 94.9841 55.6656 94.9851C55.6656 94.986 55.6656 94.9869 55.6656 94.9879C55.6656 94.9888 55.6656 94.9897 55.6656 94.9907C55.6656 94.9916 55.6656 94.9925 55.6656 94.9935C55.6656 94.9944 55.6656 94.9953 55.6656 94.9963C55.6656 94.9972 55.6656 94.9981 55.6656 94.9991C55.6656 95 55.6656 95.0009 55.6656 95.0019C55.6656 95.0028 55.6656 95.0037 55.6656 95.0047C55.6656 95.0056 55.6656 95.0065 55.6656 95.0075C55.6656 95.0084 55.6656 95.0093 55.6656 95.0103C55.6656 95.0112 55.6656 95.0121 55.6656 95.0131C55.6656 95.014 55.6656 95.0149 55.6656 95.0159C55.6656 95.0168 55.6656 95.0177 55.6656 95.0187C55.6656 95.0196 55.6656 95.0205 55.6656 95.0215C55.6656 95.0224 55.6656 95.0233 55.6656 95.0243C55.6656 95.0252 55.6656 95.0262 55.6656 95.0271C55.6656 95.028 55.6656 95.029 55.6656 95.0299C55.6656 95.0308 55.6656 95.0318 55.6656 95.0327C55.6656 95.0336 55.6656 95.0346 55.6656 95.0355C55.6656 95.0364 55.6656 95.0374 55.6656 95.0383C55.6656 95.0392 55.6656 95.0402 55.6656 95.0411C55.6656 95.0421 55.6656 95.043 55.6656 95.0439C55.6656 95.0449 55.6656 95.0458 55.6656 95.0467C55.6656 95.0477 55.6656 95.0486 55.6656 95.0495C55.6656 95.0505 55.6656 95.0514 55.6656 95.0524C55.6656 95.0533 55.6656 95.0542 55.6656 95.0552C55.6656 95.0561 55.6656 95.057 55.6656 95.058C55.6656 95.0589 55.6656 95.0599 55.6656 95.0608C55.6656 95.0617 55.6656 95.0627 55.6656 95.0636C55.6656 95.0645 55.6656 95.0655 55.6656 95.0664C55.6656 95.0674 55.6656 95.0683 55.6656 95.0692C55.6656 95.0702 55.6656 95.0711 55.6656 95.072C55.6656 95.073 55.6656 95.0739 55.6656 95.0749C55.6656 95.0758 55.6656 95.0767 55.6656 95.0777C55.6656 95.0786 55.6656 95.0795 55.6656 95.0805C55.6656 95.0814 55.6656 95.0824 55.6656 95.0833C55.6656 95.0842 55.6656 95.0852 55.6656 95.0861C55.6656 95.0871 55.6656 95.088 55.6656 95.0889C55.6656 95.0899 55.6656 95.0908 55.6656 95.0918C55.6656 95.0927 55.6656 95.0936 55.6656 95.0946C55.6656 95.0955 55.6656 95.0965 55.6656 95.0974C55.6656 95.0983 55.6656 95.0993 55.6656 95.1002C55.6656 95.1012 55.6656 95.1021 55.6656 95.103C55.6656 95.104 55.6656 95.1049 55.6656 95.1059C55.6656 95.1068 55.6656 95.1077 55.6656 95.1087C55.6656 95.1096 55.6656 95.1106 55.6656 95.1115C55.6656 95.1124 55.6656 95.1134 55.6656 95.1143C55.6656 95.1153 55.6656 95.1162 55.6656 95.1171C55.6656 95.1181 55.6656 95.119 55.6656 95.12C55.6656 95.1209 55.6656 95.1219 55.6656 95.1228C55.6656 95.1237 55.6656 95.1247 55.6656 95.1256C55.6656 95.1266 55.6656 95.1275 55.6656 95.1284C55.6656 95.1294 55.6656 95.1303 55.6656 95.1313C55.6656 95.1322 55.6656 95.1332 55.6656 95.1341C55.6656 95.135 55.6656 95.136 55.6656 95.1369C55.6656 95.1379 55.6656 95.1388 55.6656 95.1398C55.6656 95.1407 55.6656 95.1416 55.6656 95.1426C55.6656 95.1435 55.6656 95.1445 55.6656 95.1454C55.6656 95.1464 55.6656 95.1473 55.6656 95.1482C55.6656 95.1492 55.6656 95.1501 55.6656 95.1511C55.6656 95.152 55.6656 95.153 55.6656 95.1539C55.6656 95.1548 55.6656 95.1558 55.6656 95.1567C55.6656 95.1577 55.6656 95.1586 55.6656 95.1596C55.6656 95.1605 55.6656 95.1615 55.6656 95.1624C55.6656 95.1633 55.6656 95.1643 55.6656 95.1652C55.6656 95.1662 55.6656 95.1671 55.6656 95.1681C55.6656 95.169 55.6656 95.17 55.6656 95.1709C55.6656 95.1718 55.6656 95.1728 55.6656 95.1737C55.6656 95.1747 55.6656 95.1756 55.6656 95.1766C55.6656 95.1775 55.6656 95.1785 55.6656 95.1794C55.6656 95.1804 55.6656 95.1813 55.6656 95.1822C55.6656 95.1832 55.6656 95.1841 55.6656 95.1851C55.6656 95.186 55.6656 95.187 55.6656 95.1879C55.6656 95.1889 55.6656 95.1898 55.6656 95.1908C55.6656 95.1917 55.6656 95.1926 55.6656 95.1936C55.6656 95.1945 55.6656 95.1955 55.6656 95.1964C55.6656 95.1974 55.6656 95.1983 55.6656 95.1993C55.6656 95.2002 55.6656 95.2012 55.6656 95.2021C55.6656 95.2031 55.6656 95.204 55.6656 95.205C55.6656 95.2059 55.6656 95.2069 55.6656 95.2078C55.6656 95.2087 55.6656 95.2097 55.6656 95.2106C55.6656 95.2116 55.6656 95.2125 55.6656 95.2135C55.6656 95.2144 55.6656 95.2154 55.6656 95.2163C55.6656 95.2173 55.6656 95.2182 55.6656 95.2192C55.6656 95.2201 55.6656 95.2211 55.6656 95.222C55.6656 95.223 55.6656 95.2239 55.6656 95.2249C55.6656 95.2258 55.6656 95.2268 55.6656 95.2277C55.6656 95.2287 55.6656 95.2296 55.6656 95.2306C55.6656 95.2315 55.6656 95.2325 55.6656 95.2334C55.6656 95.2344 55.6656 95.2353 55.6656 95.2363C55.6656 95.2372 55.6656 95.2382 55.6656 95.2391C55.6656 95.2401 55.6656 95.241 55.6656 95.242C55.6656 95.2429 55.6656 95.2438 55.6656 95.2448C55.6656 95.2457 55.6656 95.2467 55.6656 95.2477C55.6656 95.2486 55.6656 95.2496 55.6656 95.2505C55.6656 95.2515 55.6656 95.2524 55.6656 95.2534C55.6656 95.2543 55.6656 95.2553 55.6656 95.2562C55.6656 95.2572 55.6656 95.2581 55.6656 95.2591C55.6656 95.26 55.6656 95.261 55.6656 95.2619C55.6656 95.2629 55.6656 95.2638 55.6656 95.2648C55.6656 95.2657 55.6656 95.2667 55.6656 95.2676C55.6656 95.2686 55.6656 95.2695 55.6656 95.2705C55.6656 95.2714 55.6656 95.2724 55.6656 95.2733C55.6656 95.2743 55.6656 95.2752 55.6656 95.2762C55.6656 95.2771 55.6656 95.2781 55.6656 95.279C55.6656 95.28 55.6656 95.2809 55.6656 95.2819C55.6656 95.2829 55.6656 95.2838 55.6656 95.2848C55.6656 95.2857 55.6656 95.2867 55.6656 95.2876C55.6656 95.2886 55.6656 95.2895 55.6656 95.2905C55.6656 95.2914 55.6656 95.2924 55.6656 95.2933C55.6656 95.2943 55.6656 95.2952 55.6656 95.2962C55.6656 95.2971 55.6656 95.2981 55.6656 95.2991C55.6656 95.3 55.6656 95.301 55.6656 95.3019C55.6656 95.3029 55.6656 95.3038 55.6656 95.3048C55.6656 95.3057 55.6656 95.3067 55.6656 95.3076C55.6656 95.3086 55.6656 95.3096 55.6656 95.3105C55.6656 95.3115 55.6656 95.3124 55.6656 95.3134C55.6656 95.3143 55.6656 95.3153 55.6656 95.3162C55.6656 95.3172 55.6656 95.3181 55.6656 95.3191C55.6656 95.3201 55.6656 95.321 55.6656 95.322C55.6656 95.3229 55.6656 95.3239 55.6656 95.3248C55.6656 95.3258 55.6656 95.3267 55.6656 95.3277C55.6656 95.3287 55.6656 95.3296 55.6656 95.3306C55.6656 95.3315 55.6656 95.3325 55.6656 95.3334C55.6656 95.3344 55.6656 95.3353 55.6656 95.3363C55.6656 95.3373 55.6656 95.3382 55.6656 95.3392C55.6656 95.3401 55.6656 95.3411 55.6656 95.342C55.6656 95.343 55.6656 95.344 55.6656 95.3449C55.6656 95.3459 55.6656 95.3468 55.6656 95.3478C55.6656 95.3487 55.6656 95.3497 55.6656 95.3507C55.6656 95.3516 55.6656 95.3526 55.6656 95.3535C55.6656 95.3545 55.6656 95.3554 55.6656 95.3564C55.6656 95.3574 55.6656 95.3583 55.6656 95.3593C55.6656 95.3602 55.6656 95.3612 55.6656 95.3621C55.6656 95.3631 55.6656 95.3641 55.6656 95.365C55.6656 95.366 55.6656 95.3669 55.6656 95.3679C55.6656 95.3689 55.6656 95.3698 55.6656 95.3708C55.6656 95.3717 55.6656 95.3727 55.6656 95.3736C55.6656 95.3746 55.6656 95.3756 55.6656 95.3765C55.6656 95.3775 55.6656 95.3784 55.6656 95.3794C55.6656 95.3804 55.6656 95.3813 55.6656 95.3823C55.6656 95.3832 55.6656 95.3842 55.6656 95.3852C55.6656 95.3861 55.6656 95.3871 55.6656 95.388C55.6656 95.389 55.6656 95.39 55.6656 95.3909C55.6656 95.3919 55.6656 95.3928 55.6656 95.3938C55.6656 95.3948 55.6656 95.3957 55.6656 95.3967C55.6656 95.3976 55.6656 95.3986 55.6656 95.3996C55.6656 95.4005 55.6656 95.4015 55.6656 95.4024C55.6656 95.4034 55.6656 95.4044 55.6656 95.4053C55.6656 95.4063 55.6656 95.4072 55.6656 95.4082C55.6656 95.4092 55.6656 95.4101 55.6656 95.4111C55.6656 95.412 55.6656 95.413 55.6656 95.414C55.6656 95.4149 55.6656 95.4159 55.6656 95.4169C55.6656 95.4178 55.6656 95.4188 55.6656 95.4197C55.6656 95.4207 55.6656 95.4217 55.6656 95.4226C55.6656 95.4236 55.6656 95.4246 55.6656 95.4255C55.6656 95.4265 55.6656 95.4274 55.6656 95.4284C55.6656 95.4294 55.6656 95.4303 55.6656 95.4313C55.6656 95.4323 55.6656 95.4332 55.6656 95.4342C55.6656 95.4351 55.6656 95.4361 55.6656 95.4371C55.6656 95.438 55.6656 95.439 55.6656 95.44C55.6656 95.4409 55.6656 95.4419 55.6656 95.4428C55.6656 95.4438 55.6656 95.4448 55.6656 95.4457C55.6656 95.4467 55.6656 95.4477 55.6656 95.4486C55.6656 95.4496 55.6656 95.4506 55.6656 95.4515C55.6656 95.4525 55.6656 95.4534 55.6656 95.4544C55.6656 95.4554 55.6656 95.4563 55.6656 95.4573C55.6656 95.4583 55.6656 95.4592 55.6656 95.4602C55.6656 95.4612 55.6656 95.4621 55.6656 95.4631C55.6656 95.4641 55.6656 95.465 55.6656 95.466C55.6656 95.467 55.6656 95.4679 55.6656 95.4689C55.6656 95.4698 55.6656 95.4708 55.6656 95.4718C55.6656 95.4727 55.6656 95.4737 55.6656 95.4747C55.6656 95.4756 55.6656 95.4766 55.6656 95.4776C55.6656 95.4785 55.6656 95.4795 55.6656 95.4805C55.6656 95.4814 55.6656 95.4824 55.6656 95.4834C55.6656 95.4843 55.6656 95.4853 55.6656 95.4863C55.6656 95.4872 55.6656 95.4882 55.6656 95.4892C55.6656 95.4901 55.6656 95.4911 55.6656 95.4921C55.6656 95.493 55.6656 95.494 55.6656 95.495C55.6656 95.4959 55.6656 95.4969 55.6656 95.4979C55.6656 95.4988 55.6656 95.4998 55.6656 95.5008C55.6656 95.5017 55.6656 95.5027 55.6656 95.5037C55.6656 95.5046 55.6656 95.5056 55.6656 95.5066C55.6656 95.5075 55.6656 95.5085 55.6656 95.5095C55.6656 95.5104 55.6656 95.5114 55.6656 95.5124C55.6656 95.5134 55.6656 95.5143 55.6656 95.5153C55.6656 95.5163 55.6656 95.5172 55.6656 95.5182C55.6656 95.5192 55.6656 95.5201 55.6656 95.5211C55.6656 95.5221 55.6656 95.523 55.6656 95.524C55.6656 95.525 55.6656 95.5259 55.6656 95.5269C55.6656 95.5279 55.6656 95.5289 55.6656 95.5298C55.6656 95.5308 55.6656 95.5318 55.6656 95.5327C55.6656 95.5337 55.6656 95.5347 55.6656 95.5356C55.6656 95.5366 55.6656 95.5376 55.6656 95.5385C55.6656 95.5395 55.6656 95.5405 55.6656 95.5415C55.6656 95.5424 55.6656 95.5434 55.6656 95.5444C55.6656 95.5453 55.6656 95.5463 55.6656 95.5473C55.6656 95.5483 55.6656 95.5492 55.6656 95.5502C55.6656 95.5512 55.6656 95.5521 55.6656 95.5531C55.6656 95.5541 55.6656 95.555 55.6656 95.556C55.6656 95.557 55.6656 95.558 55.6656 95.5589C55.6656 95.5599 55.6656 95.5609 55.6656 95.5618C55.6656 95.5628 55.6656 95.5638 55.6656 95.5648C55.6656 95.5657 55.6656 95.5667 55.6656 95.5677C55.6656 95.5686 55.6656 95.5696 55.6656 95.5706C55.6656 95.5716 55.6656 95.5725 55.6656 95.5735C55.6656 95.5745 55.6656 95.5755 55.6656 95.5764C55.6656 95.5774 55.6656 95.5784 55.6656 95.5793C55.6656 95.5803 55.6656 95.5813 55.6656 95.5823C55.6656 95.5832 55.6656 95.5842 55.6656 95.5852C55.6656 95.5862 55.6656 95.5871 55.6656 95.5881C55.6656 95.5891 55.6656 95.59 55.6656 95.591C55.6656 95.592 55.6656 95.593 55.6656 95.5939C55.6656 95.5949 55.6656 95.5959 55.6656 95.5969C55.6656 95.5978 55.6656 95.5988 55.6656 95.5998C55.6656 95.6008 55.6656 95.6017 55.6656 95.6027C55.6656 95.6037 55.6656 95.6047 55.6656 95.6056C55.6656 95.6066 55.6656 95.6076 55.6656 95.6086C55.6656 95.6095 55.6656 95.6105 55.6656 95.6115C55.6656 95.6125 55.6656 95.6134 55.6656 95.6144C55.6656 95.6154 55.6656 95.6164 55.6656 95.6173C55.6656 95.6183 55.6656 95.6193 55.6656 95.6203C55.6656 95.6212 55.6656 95.6222 55.6656 95.6232C55.6656 95.6242 55.6656 95.6251 55.6656 95.6261C55.6656 95.6271 55.6656 95.6281 55.6656 95.629C55.6656 95.63 55.6656 95.631 55.6656 95.632C55.6656 95.6329 55.6656 95.6339 55.6656 95.6349C55.6656 95.6359 55.6656 95.6368 55.6656 95.6378C55.6656 95.6388 55.6656 95.6398 55.6656 95.6407C55.6656 95.6417 55.6656 95.6427 55.6656 95.6437C55.6656 95.6447 55.6656 95.6456 55.6656 95.6466C55.6656 95.6476 55.6656 95.6486 55.6656 95.6495C55.6656 95.6505 55.6656 95.6515 55.6656 95.6525C55.6656 95.6535 55.6656 95.6544 55.6656 95.6554C55.6656 95.6564 55.6656 95.6574 55.6656 95.6583C55.6656 95.6593 55.6656 95.6603 55.6656 95.6613C55.6656 95.6623 55.6656 95.6632 55.6656 95.6642C55.6656 95.6652 55.6656 95.6662 55.6656 95.6671C55.6656 95.6681 55.6656 95.6691 55.6656 95.6701C55.6656 95.6711 55.6656 95.672 55.6656 95.673C55.6656 95.674 55.6656 95.675 55.6656 95.676C55.6656 95.6769 55.6656 95.6779 55.6656 95.6789C55.6656 95.6799 55.6656 95.6809 55.6656 95.6818C55.6656 95.6828 55.6656 95.6838 55.6656 95.6848C55.6656 95.6857 55.6656 95.6867 55.6656 95.6877C55.6656 95.6887 55.6656 95.6897 55.6656 95.6906C55.6656 95.6916 55.6656 95.6926 55.6656 95.6936C55.6656 95.6946 55.6656 95.6955 55.6656 95.6965C55.6656 95.6975 55.6656 95.6985 55.6656 95.6995C55.6656 95.7005 55.6656 95.7014 55.6656 95.7024C55.6656 95.7034 55.6656 95.7044 55.6656 95.7054C55.6656 95.7063 55.6656 95.7073 55.6656 95.7083C55.6656 95.7093 55.6656 95.7103 55.6656 95.7112C55.6656 95.7122 55.6656 95.7132 55.6656 95.7142C55.6656 95.7152 55.6656 95.7162 55.6656 95.7171C55.6656 95.7181 55.6656 95.7191 55.6656 95.7201C55.6656 95.7211 55.6656 95.722 55.6656 95.723C55.6656 95.724 55.6656 95.725 55.6656 95.726C55.6656 95.727 55.6656 95.7279 55.6656 95.7289C55.6656 95.7299 55.6656 95.7309 55.6656 95.7319C55.6656 95.7329 55.6656 95.7338 55.6656 95.7348C55.6656 95.7358 55.6656 95.7368 55.6656 95.7378C55.6656 95.7387 55.6656 95.7397 55.6656 95.7407C55.6656 95.7417 55.6656 95.7427 55.6656 95.7437C55.6656 95.7447 55.6656 95.7456 55.6656 95.7466C55.6656 95.7476 55.6656 95.7486 55.6656 95.7496C55.6656 95.7506 55.6656 95.7515 55.6656 95.7525C55.6656 95.7535 55.6656 95.7545 55.6656 95.7555C55.6656 95.7565 55.6656 95.7574 55.6656 95.7584C55.6656 95.7594 55.6656 95.7604 55.6656 95.7614C55.6656 95.7624 55.6656 95.7634 55.6656 95.7643C55.6656 95.7653 55.6656 95.7663 55.6656 95.7673C55.6656 95.7683 55.6656 95.7693 55.6656 95.7702C55.6656 95.7712 55.6656 95.7722 55.6656 95.7732C55.6656 95.7742 55.6656 95.7752 55.6656 95.7762C55.6656 95.7771 55.6656 95.7781 55.6656 95.7791C55.6656 95.7801 55.6656 95.7811 55.6656 95.7821C55.6656 95.7831 55.6656 95.784 55.6656 95.785C55.6656 95.786 55.6656 95.787 55.6656 95.788C55.6656 95.789 55.6656 95.79 55.6656 95.791C55.6656 95.7919 55.6656 95.7929 55.6656 95.7939C55.6656 95.7949 55.6656 95.7959 55.6656 95.7969C55.6656 95.7979 55.6656 95.7989 55.6656 95.7998C55.6656 95.8008 55.6656 95.8018 55.6656 95.8028C55.6656 95.8038 55.6656 95.8048 55.6656 95.8058C55.6656 95.8068 55.6656 95.8077 55.6656 95.8087C55.6656 95.8097 55.6656 95.8107 55.6656 95.8117C55.6656 95.8127 55.6656 95.8137 55.6656 95.8147C55.6656 95.8156 55.6656 95.8166 55.6656 95.8176C55.6656 95.8186 55.6656 95.8196 55.6656 95.8206C55.6656 95.8216 55.6656 95.8226 55.6656 95.8236C55.6656 95.8245 55.6656 95.8255 55.6656 95.8265C55.6656 95.8275 55.6656 95.8285 55.6656 95.8295C55.6656 95.8305 55.6656 95.8315 55.6656 95.8325C55.6656 95.8334 55.6656 95.8344 55.6656 95.8354C55.6656 95.8364 55.6656 95.8374 55.6656 95.8384C55.6656 95.8394 55.6656 95.8404 55.6656 95.8414C55.6656 95.8424 55.6656 95.8433 55.6656 95.8443C55.6656 95.8453 55.6656 95.8463 55.6656 95.8473C55.6656 95.8483 55.6656 95.8493 55.6656 95.8503C55.6656 95.8513 55.6656 95.8523 55.6656 95.8532C55.6656 95.8542 55.6656 95.8552 55.6656 95.8562C55.6656 95.8572 55.6656 95.8582 55.6656 95.8592C55.6656 95.8602 55.6656 95.8612 55.6656 95.8622C55.6656 95.8632 55.6656 95.8642 55.6656 95.8651C55.6656 95.8661 55.6656 95.8671 55.6656 95.8681C55.6656 95.8691 55.6656 95.8701 55.6656 95.8711C55.6656 95.8721 55.6656 95.8731 55.6656 95.8741C55.6656 95.8751 55.6656 95.8761 55.6656 95.877C55.6656 95.878 55.6656 95.879 55.6656 95.88C55.6656 95.881 55.6656 95.882 55.6656 95.883C55.6656 95.884 55.6656 95.885 55.6656 95.886C55.6656 95.887 55.6656 95.888 55.6656 95.889C55.6656 95.89 55.6656 95.8909 55.6656 95.8919C55.6656 95.8929 55.6656 95.8939 55.6656 95.8949C55.6656 95.8959 55.6656 95.8969 55.6656 95.8979C55.6656 95.8989 55.6656 95.8999 55.6656 95.9009C55.6656 95.9019 55.6656 95.9029 55.6656 95.9039C55.6656 95.9049 55.6656 95.9059 55.6656 95.9068C55.6656 95.9078 55.6656 95.9088 55.6656 95.9098C55.6656 95.9108 55.6656 95.9118 55.6656 95.9128C55.6656 95.9138 55.6656 95.9148 55.6656 95.9158C55.6656 95.9168 55.6656 95.9178 55.6656 95.9188C55.6656 95.9198 55.6656 95.9208 55.6656 95.9218C55.6656 95.9228 55.6656 95.9238 55.6656 95.9248C55.6656 95.9258 55.6656 95.9267 55.6656 95.9277C55.6656 95.9287 55.6656 95.9297 55.6656 95.9307C55.6656 95.9317 55.6656 95.9327 55.6656 95.9337C55.6656 95.9347 55.6656 95.9357 55.6656 95.9367C55.6656 95.9377 55.6656 95.9387 55.6656 95.9397C55.6656 95.9407 55.6656 95.9417 55.6656 95.9427C55.6656 95.9437 55.6656 95.9447 55.6656 95.9457C55.6656 95.9467 55.6656 95.9477 55.6656 95.9487C55.6656 95.9497 55.6656 95.9507 55.6656 95.9517C55.6656 95.9527 55.6656 95.9537 55.6656 95.9546C55.6656 95.9556 55.6656 95.9566 55.6656 95.9576C55.6656 95.9586 55.6656 95.9596 55.6656 95.9606C55.6656 95.9616 55.6656 95.9626 55.6656 95.9636C55.6656 95.9646 55.6656 95.9656 55.6656 95.9666C55.6656 95.9676 55.6656 95.9686 55.6656 95.9696C55.6656 95.9706 55.6656 95.9716 55.6656 95.9726C55.6656 95.9736 55.6656 95.9746 55.6656 95.9756C55.6656 95.9766 55.6656 95.9776 55.6656 95.9786C55.6656 95.9796 55.6656 95.9806 55.6656 95.9816C55.6656 95.9826 55.6656 95.9836 55.6656 95.9846C55.6656 95.9856 55.6656 95.9866 55.6656 95.9876C55.6656 95.9886 55.6656 95.9896 55.6656 95.9906C55.6656 95.9916 55.6656 95.9926 55.6656 95.9936H57.6656ZM57.0608 93.6158C52.9865 91.8629 50.2455 88.5046 48.8766 83.3711L46.9442 83.8865C48.4425 89.505 51.5383 93.4171 56.2704 95.453L57.0608 93.6158ZM48.8734 83.3592C48.183 80.8935 47.8352 78.2712 47.8352 75.488H45.8352C45.8352 78.4392 46.2042 81.2441 46.9474 83.8984L48.8734 83.3592ZM47.8352 75.488C47.8352 72.7158 48.2313 69.7527 49.0332 66.595L47.0948 66.1026C46.2583 69.3961 45.8352 72.5258 45.8352 75.488H47.8352ZM48.2868 65.3739C44.8409 64.5863 41.8879 63.1657 39.4069 61.1225L38.1355 62.6663C40.8769 64.9239 44.1191 66.4729 47.8412 67.3237L48.2868 65.3739ZM39.4069 61.1225C36.9065 59.0633 35.1468 56.7361 34.0909 54.1443L32.2387 54.8989C33.4356 57.8367 35.4135 60.4247 38.1355 62.6663L39.4069 61.1225ZM34.0906 54.1435C32.6417 50.5963 31.9376 47.3726 31.9376 44.4608H29.9376C29.9376 47.693 30.7183 51.1765 32.239 54.8997L34.0906 54.1435ZM31.9376 44.4608C31.9376 41.4962 32.4066 38.7183 33.3381 36.1199L31.4555 35.4449C30.4414 38.2737 29.9376 41.2814 29.9376 44.4608H31.9376ZM33.3381 36.1199C34.2743 33.5085 35.6311 31.0391 37.4147 28.7105L35.8269 27.4943C33.9241 29.9785 32.4649 32.6291 31.4555 35.4449L33.3381 36.1199ZM37.4288 28.6916C39.1127 26.3823 41.4096 24.5113 44.352 23.0892L43.4816 21.2885C40.28 22.8359 37.7129 24.9073 35.8128 27.5132L37.4288 28.6916ZM44.364 23.0832C47.2871 21.6217 50.5116 20.8848 54.0544 20.8848V18.8848C50.2244 18.8848 46.6905 19.6839 43.4696 21.2944L44.364 23.0832ZM54.0544 20.8848C57.5631 20.8848 60.4417 21.5642 62.7388 22.8667C65.0263 24.1637 66.798 26.1127 68.0495 28.7602L69.8577 27.9054C68.4468 24.9209 66.4041 22.6459 63.7252 21.1269C61.0559 19.6134 57.8161 18.8848 54.0544 18.8848V20.8848ZM68.0592 28.78C68.0842 28.8301 68.0558 28.7979 68.0604 28.7053C68.0628 28.6573 68.0738 28.6046 68.0953 28.553C68.1165 28.5021 68.1426 28.4652 68.1626 28.4423C68.1983 28.4016 68.2041 28.4164 68.1155 28.4558C68.03 28.4938 67.8912 28.5392 67.6823 28.581L68.0745 30.5422C68.6327 30.4306 69.2605 30.2247 69.6678 29.7593C69.8958 29.4987 70.0396 29.1724 70.058 28.8051C70.0754 28.4565 69.9766 28.1427 69.848 27.8856L68.0592 28.78ZM67.7954 28.5651C67.259 28.6098 66.9211 28.5602 66.7251 28.4883C66.5589 28.4274 66.5112 28.3603 66.4824 28.2977L64.6664 29.1359C65.2542 30.4094 66.6339 30.6688 67.9614 30.5581L67.7954 28.5651ZM66.5231 28.4006C65.6858 25.8887 64.1909 23.9587 62.0352 22.6738C59.8998 21.4011 57.1904 20.8048 53.9776 20.8048V22.8048C56.96 22.8048 59.281 23.3605 61.0112 24.3918C62.7211 25.4109 63.927 26.9369 64.6257 29.033L66.5231 28.4006ZM82.4704 31.3264C79.3198 31.3264 76.1649 32.3786 73.0201 34.4041L74.1031 36.0855C76.9999 34.2198 79.7842 33.3264 82.4704 33.3264V31.3264ZM73.0238 34.4017C69.9482 36.3638 67.1532 38.9525 64.6349 42.1528L66.2067 43.3896C68.6036 40.3435 71.2358 37.9146 74.0994 36.0879L73.0238 34.4017ZM64.6341 42.1539C59.3302 48.9138 55.4578 56.5308 53.0167 64.9965L54.9385 65.5507C57.3102 57.3252 61.0666 49.9406 66.2075 43.3885L64.6341 42.1539ZM53.9776 66.2736H55.0528V64.2736H53.9776V66.2736ZM55.0528 66.2736C65.3219 66.2736 74.0193 62.9903 81.0789 56.4048L79.7147 54.9424C73.0527 61.1569 64.8541 64.2736 55.0528 64.2736V66.2736ZM81.0788 56.4049C85.7499 52.0487 88.6716 47.292 89.747 42.1304L87.789 41.7224C86.8164 46.3912 84.1573 50.7993 79.7148 54.9423L81.0788 56.4049ZM89.7503 42.1135C89.964 40.9916 90.0752 39.9548 90.0752 39.008H88.0752C88.0752 39.802 87.9816 40.7108 87.7857 41.7393L89.7503 42.1135ZM90.0752 39.008C90.0752 36.0661 88.9752 33.785 86.6746 32.3925L85.639 34.1035C87.2296 35.0662 88.0752 36.6251 88.0752 39.008H90.0752ZM86.6908 32.4025C85.5179 31.6617 84.0901 31.3264 82.4704 31.3264V33.3264C83.8203 33.3264 84.8501 33.6055 85.6228 34.0935L86.6908 32.4025ZM77.7856 68.1136C73.168 68.1136 69.1134 70.9517 65.591 76.1563L67.2474 77.2773C70.5858 72.3443 74.1088 70.1136 77.7856 70.1136V68.1136ZM65.5871 76.1621C62.1195 81.3636 59.9926 87.1441 59.206 93.4898L61.1908 93.7358C61.9402 87.6911 63.9605 82.2076 67.2512 77.2715L65.5871 76.1621ZM59.9043 94.5686C61.3369 95.0094 62.8445 95.2272 64.4224 95.2272V93.2272C63.0307 93.2272 61.7223 93.0354 60.4925 92.657L59.9043 94.5686ZM64.4224 95.2272C70.3982 95.2272 75.4122 92.598 79.4184 87.47L77.8424 86.2388C74.1686 90.9412 69.7106 93.2272 64.4224 93.2272V95.2272ZM79.4123 87.4778C82.5297 83.5679 84.1616 79.617 84.1616 75.6416H82.1616C82.1616 79.039 80.7727 82.5633 77.8485 86.231L79.4123 87.4778ZM84.1616 75.6416C84.1616 73.6936 83.8123 72.0319 83.0106 70.7523C82.188 69.4392 80.9464 68.6213 79.375 68.2889L78.961 70.2455C80.052 70.4763 80.8072 71.0024 81.3158 71.8141C81.8453 72.6593 82.1616 73.9032 82.1616 75.6416H84.1616ZM79.4105 68.2971C78.9069 68.1712 78.3627 68.1136 77.7856 68.1136V70.1136C78.2325 70.1136 78.6099 70.1584 78.9255 70.2373L79.4105 68.2971Z" fill="white"/>
</g>
<defs>
<linearGradient id="paint0_linear_315_2" x1="-28.8468" y1="88.2804" x2="90.3309" y2="157.285" gradientUnits="userSpaceOnUse">
<stop stop-color="#8EC788"/>
<stop offset="1" stop-color="#B4D2B1"/>
</linearGradient>
<clipPath id="clip0_315_2">
<rect width="134" height="134" fill="white"/>
</clipPath>
</defs>
</svg>
