<svg width="40" height="40" viewBox="0 0 40 40" fill="none" xmlns="http://www.w3.org/2000/svg">
<path d="M20 40C31.0457 40 40 31.0457 40 20C40 8.9543 31.0457 0 20 0C8.9543 0 0 8.9543 0 20C0 31.0457 8.9543 40 20 40Z" fill="white"/>
<path d="M34.1422 5.85781C30.3646 2.08041 25.3422 0 20 0C14.6578 0 9.63538 2.08041 5.85781 5.85781C2.08041 9.63538 0 14.6578 0 20C0 25.3422 2.08041 30.3646 5.85781 34.1422C9.63538 37.9196 14.6578 40 20 40C25.3422 40 30.3646 37.9196 34.1422 34.1422C37.9196 30.3646 40 25.3422 40 20C40 14.6578 37.9196 9.63538 34.1422 5.85781ZM20 37.5258C10.3362 37.5258 2.47423 29.6638 2.47423 20C2.47423 10.3362 10.3362 2.47423 20 2.47423C29.6638 2.47423 37.5258 10.3362 37.5258 20C37.5258 29.6638 29.6638 37.5258 20 37.5258Z" fill="#5A5862"/>
<path d="M14.933 27.7587L28.3661 20L14.933 12.2412V27.7587Z" fill="#5A5862"/>
</svg>
