<svg width="50" height="50" viewBox="0 0 50 50" fill="none" xmlns="http://www.w3.org/2000/svg">
<path d="M13.4777 47.1259C24.8324 53.7194 40.0935 48.2865 46.6491 36.8663C53.2048 25.4461 49.3144 10.8432 37.9597 4.24972C26.605 -2.34369 9.27623 -1.78855 2.72053 9.63162C-3.8351 21.0518 2.12303 40.5325 13.4777 47.1259Z" fill="url(#paint0_linear)"/>
<path d="M21.64 8.72C20.1808 8.72 18.8656 9.0656 17.6944 9.7568C15.5248 11.0624 14.248 13.1168 13.864 15.92C13.8064 16.3616 13.7776 16.8992 13.7776 17.5328C13.7776 18.1664 13.8928 18.8768 14.1232 19.664C14.4496 20.8352 15.0928 21.8912 16.0528 22.832C16.9936 23.7728 18.1744 24.416 19.5952 24.7616C20.1904 22.5728 21.0928 20.528 22.3024 18.6272C23.512 16.7072 25.0384 15.1136 26.8816 13.8464C28.7248 12.56 30.664 11.9168 32.6992 11.9168C34.4656 11.9168 35.5408 12.6272 35.9248 14.048C36.04 14.4128 36.0976 14.7968 36.0976 15.2C36.0976 16.3712 35.656 17.6672 34.7728 19.088C33.3904 21.3728 31.3744 23.1104 28.7248 24.3008C26.6512 25.2416 24.4144 25.712 22.0144 25.712H21.4384C21.0352 27.1328 20.8336 28.5056 20.8336 29.8304C20.8336 32.3264 21.4672 34.0544 22.7344 35.0144C22.9072 33.44 23.3104 31.9616 23.944 30.5792C24.5776 29.1968 25.4512 28.0352 26.5648 27.0944C27.6976 26.1536 28.9456 25.6832 30.3088 25.6832C31.8832 25.6832 32.8624 26.384 33.2464 27.7856C33.3424 28.1696 33.3904 28.5632 33.3904 28.9664C33.3904 30.0224 33.0544 31.1552 32.3824 32.3648C31.3264 34.2272 29.8576 35.4944 27.976 36.1664C26.6128 36.6272 25.2592 36.704 23.9152 36.3968C23.896 36.6464 23.8864 36.896 23.8864 37.1456C23.8864 38.5472 24.184 39.728 24.7792 40.688C25.4512 41.8208 26.5456 42.3872 28.0624 42.3872C28.0048 42.752 27.688 42.9344 27.112 42.9344C25.576 42.9344 24.4432 42.3008 23.7136 41.0336C23.0032 39.7664 22.648 38.2688 22.648 36.5408C22.648 36.3488 22.648 36.1664 22.648 35.9936C20.9968 35.2832 19.9024 33.92 19.3648 31.904C19.096 30.944 18.9616 29.9264 18.9616 28.8512C18.9616 27.776 19.1152 26.6336 19.4224 25.424C18.0784 25.1168 16.9168 24.56 15.9376 23.7536C14.9584 22.9472 14.2576 22.0256 13.8352 20.9888C13.2784 19.6256 13 18.368 13 17.216C13 16.064 13.1824 14.9792 13.5472 13.9616C13.912 12.944 14.44 11.984 15.1312 11.0816C15.8032 10.16 16.7152 9.4208 17.8672 8.864C19.0192 8.288 20.2864 8 21.6688 8C24.3952 8 26.2576 9.056 27.256 11.168C27.3712 11.3984 27.2368 11.552 26.8528 11.6288C26.392 11.6672 26.104 11.5616 25.9888 11.312C25.4128 9.584 23.9632 8.72 21.64 8.72ZM32.3248 12.6656C31.2304 12.6656 30.1168 13.0304 28.984 13.76C27.8704 14.4704 26.8528 15.4112 25.9312 16.5824C23.9728 19.0784 22.5424 21.8912 21.64 25.0208H22.0432C25.8064 25.0208 28.9744 23.8208 31.5472 21.4208C33.256 19.8272 34.3024 18.1088 34.6864 16.2656C34.7632 15.8624 34.8016 15.4976 34.8016 15.1712C34.8016 14.1728 34.4368 13.4528 33.7072 13.0112C33.3424 12.7808 32.8816 12.6656 32.3248 12.6656ZM30.568 26.4608C29.0128 26.4608 27.592 27.4112 26.3056 29.312C25.0384 31.2128 24.2608 33.3248 23.9728 35.648C24.472 35.8016 25 35.8784 25.5568 35.8784C27.6688 35.8784 29.4448 34.9568 30.8848 33.1136C32.0176 31.6928 32.584 30.2912 32.584 28.9088C32.584 27.5264 32.0848 26.7296 31.0864 26.5184C30.9328 26.48 30.76 26.4608 30.568 26.4608Z" fill="white"/>
<defs>
<linearGradient id="paint0_linear" x1="-10.7279" y1="32.9249" x2="33.657" y2="58.5506" gradientUnits="userSpaceOnUse">
<stop stop-color="#C2509C"/>
<stop offset="1" stop-color="#9E6AFF"/>
</linearGradient>
</defs>
</svg>
